<svg width="40" height="40" viewBox="0 0 40 40" fill="none" xmlns="http://www.w3.org/2000/svg">
<rect width="40" height="40" rx="4.97528" fill="url(#paint0_radial_132_917)"/>
<g clip-path="url(#clip0_132_917)">
<path fill-rule="evenodd" clip-rule="evenodd" d="M32.2646 20.0033C32.2646 18.3784 30.2305 16.8393 27.1104 15.8831C27.831 12.7032 27.5096 10.174 26.1003 9.36358C25.775 9.17394 25.3957 9.08411 24.9805 9.08411V10.2C25.21 10.2 25.3957 10.2459 25.5514 10.3297C26.2321 10.719 26.5255 12.2042 26.296 14.1145C26.2401 14.5836 26.1502 15.0787 26.0404 15.5837C25.0603 15.3442 23.9904 15.1585 22.8665 15.0388C22.1918 14.1145 21.4911 13.2741 20.7865 12.5395C22.4154 11.0224 23.9444 10.194 24.9845 10.194V9.07812C23.6091 9.07812 21.8105 10.0583 19.99 11.759C18.1695 10.0682 16.3709 9.09809 14.9955 9.09809V10.214C16.0295 10.214 17.5646 11.0384 19.1955 12.5435C18.4948 13.2781 17.7962 14.1125 17.1314 15.0388C16.0016 15.1585 14.9316 15.3442 13.9515 15.5877C13.8357 15.0887 13.7519 14.6036 13.692 14.1385C13.4564 12.2281 13.7479 10.743 14.4226 10.3477C14.5723 10.2579 14.7679 10.218 14.9975 10.218V9.10408C14.5783 9.10408 14.197 9.1939 13.8677 9.38354C12.4623 10.194 12.1469 12.7192 12.8736 15.8891C9.75949 16.8473 7.73535 18.3824 7.73535 20.0033C7.73535 21.6282 9.76947 23.1673 12.8895 24.1234C12.1689 27.3034 12.4903 29.8325 13.8996 30.643C14.225 30.8326 14.6043 30.9225 15.0254 30.9225C16.4008 30.9225 18.1994 29.9423 20.0199 28.2416C21.8405 29.9324 23.639 30.9025 25.0144 30.9025C25.4336 30.9025 25.8149 30.8127 26.1442 30.623C27.5496 29.8126 27.865 27.2874 27.1384 24.1174C30.2404 23.1633 32.2646 21.6222 32.2646 20.0033ZM22.2796 20.0033C22.2796 18.7417 21.2576 17.7177 19.994 17.7177C18.7324 17.7177 17.7083 18.7397 17.7083 20.0033C17.7083 21.2669 18.7304 22.2889 19.994 22.2889C21.2576 22.2869 22.2796 21.2649 22.2796 20.0033ZM25.755 16.6677C25.5693 17.3124 25.3398 17.9772 25.0803 18.6419C24.8747 18.2426 24.6611 17.8414 24.4255 17.4422C24.196 17.0429 23.9504 16.6517 23.7049 16.2724C24.4155 16.3782 25.1002 16.508 25.755 16.6677ZM23.4654 21.9935C23.0761 22.6682 22.6749 23.309 22.2597 23.9039C21.5151 23.9697 20.7605 24.0037 20 24.0037C19.2454 24.0037 18.4908 23.9677 17.7503 23.9078C17.335 23.313 16.9298 22.6782 16.5406 22.0075C16.1613 21.3527 15.8159 20.688 15.5005 20.0173C15.81 19.3465 16.1613 18.6778 16.5346 18.0231C16.9238 17.3484 17.3251 16.7076 17.7403 16.1127C18.4849 16.0468 19.2394 16.0129 20 16.0129C20.7545 16.0129 21.5091 16.0488 22.2497 16.1087C22.6649 16.7036 23.0701 17.3384 23.4594 18.0091C23.8386 18.6638 24.184 19.3286 24.4994 19.9993C24.184 20.668 23.8406 21.3367 23.4654 21.9935ZM25.0803 21.3427C25.3498 22.0135 25.5793 22.6822 25.771 23.3329C25.1162 23.4926 24.4255 23.6284 23.7109 23.7322C23.9564 23.3469 24.2 22.9517 24.4315 22.5464C24.6591 22.1472 24.8747 21.742 25.0803 21.3427ZM20.0099 26.6766C19.5448 26.1975 19.0797 25.6625 18.6206 25.0776C19.0697 25.0976 19.5309 25.1135 19.996 25.1135C20.4651 25.1135 20.9302 25.1036 21.3853 25.0776C20.9342 25.6625 20.4691 26.1975 20.0099 26.6766ZM16.291 23.7322C15.5804 23.6264 14.8957 23.4966 14.2409 23.3369C14.4266 22.6922 14.6562 22.0274 14.9157 21.3627C15.1213 21.7619 15.3349 22.1632 15.5704 22.5624C15.806 22.9636 16.0455 23.3529 16.291 23.7322ZM19.984 13.328C20.4491 13.8071 20.9142 14.3421 21.3733 14.927C20.9242 14.907 20.4631 14.891 19.998 14.891C19.5289 14.891 19.0637 14.901 18.6086 14.927C19.0598 14.3421 19.5249 13.8071 19.984 13.328ZM16.285 16.2724C16.0395 16.6577 15.796 17.0529 15.5644 17.4581C15.3349 17.8574 15.1193 18.2586 14.9137 18.6579C14.6442 17.9871 14.4146 17.3184 14.223 16.6677C14.8797 16.512 15.5704 16.3782 16.285 16.2724ZM11.7597 22.5325C9.98905 21.7779 8.84524 20.7878 8.84524 20.0033C8.84524 19.2188 9.99105 18.2227 11.7597 17.4741C12.1889 17.2885 12.66 17.1248 13.145 16.9691C13.4305 17.9492 13.8058 18.9693 14.2709 20.0133C13.8118 21.0533 13.4405 22.0674 13.161 23.0435C12.6659 22.8878 12.1948 22.7181 11.7597 22.5325ZM14.4505 29.6768C13.7698 29.2876 13.4764 27.8024 13.706 25.8921C13.7619 25.423 13.8517 24.9279 13.9615 24.4229C14.9416 24.6624 16.0116 24.8481 17.1354 24.9678C17.8101 25.8921 18.5108 26.7325 19.2155 27.4671C17.5846 28.9822 16.0555 29.8126 15.0155 29.8126C14.7899 29.8066 14.6003 29.7627 14.4505 29.6768ZM26.3099 25.8681C26.5455 27.7785 26.254 29.2636 25.5793 29.6589C25.4296 29.7487 25.234 29.7886 25.0044 29.7886C23.9704 29.7886 22.4353 28.9642 20.8044 27.4591C21.5051 26.7245 22.2038 25.8901 22.8685 24.9638C23.9983 24.8441 25.0683 24.6584 26.0484 24.4129C26.1642 24.9179 26.254 25.403 26.3099 25.8681ZM28.2343 22.5325C27.8051 22.7181 27.334 22.8818 26.8489 23.0375C26.5634 22.0574 26.1882 21.0373 25.7231 19.9933C26.1822 18.9533 26.5535 17.9392 26.8329 16.9631C27.328 17.1188 27.7971 17.2885 28.2383 17.4721C30.0089 18.2267 31.1527 19.2168 31.1527 20.0013C31.1487 20.7878 30.0049 21.7819 28.2343 22.5325Z" fill="#58FF5D"/>
</g>
<defs>
<radialGradient id="paint0_radial_132_917" cx="0" cy="0" r="1" gradientUnits="userSpaceOnUse" gradientTransform="translate(1.99978 1.39164) rotate(45.2682) scale(52.0623)">
<stop stop-color="#00620B"/>
<stop offset="1" stop-color="#00A313"/>
</radialGradient>
<clipPath id="clip0_132_917">
<rect width="24.5292" height="21.8443" fill="white" transform="translate(7.73535 9.07812)"/>
</clipPath>
</defs>
</svg>
