<svg width="85" height="24" viewBox="0 0 85 24" fill="none" xmlns="http://www.w3.org/2000/svg">
<path d="M51.7522 19.5362C50.8748 19.5362 50.0477 19.3674 49.2711 19.0293C48.4946 18.6918 47.8169 18.2331 47.2377 17.6539C46.6586 17.0748 46.1999 16.3967 45.8624 15.6202C45.5246 14.8437 45.3555 14.0125 45.3555 13.1261C45.3555 12.2398 45.5242 11.4063 45.8624 10.6251C46.1999 9.84422 46.6586 9.16221 47.2377 8.57839C47.8169 7.9949 48.4949 7.53423 49.2711 7.19639C50.0477 6.85854 50.8748 6.68945 51.7522 6.68945C52.6296 6.68945 53.4697 6.85854 54.2463 7.19639C55.0228 7.53423 55.7008 7.9949 56.28 8.57839C56.8592 9.16221 57.3152 9.84422 57.6487 10.6251C57.9822 11.4063 58.149 12.2398 58.149 13.1261V18.0094C58.149 18.2201 58.1094 18.4155 58.0305 18.5952C57.9516 18.775 57.8461 18.9331 57.7146 19.0689C57.5831 19.205 57.427 19.3122 57.2473 19.3914C57.0672 19.4703 56.8721 19.5099 56.6614 19.5099C56.3103 19.5099 56.0141 19.4134 55.7731 19.2203C55.5317 19.0273 55.367 18.7773 55.2794 18.4701C54.7705 18.8036 54.22 19.0646 53.6275 19.2533C53.035 19.442 52.4102 19.5362 51.7522 19.5362ZM51.7452 16.6141C52.2289 16.6141 52.6835 16.5219 53.1099 16.3375C53.5363 16.1531 53.9054 15.9031 54.2176 15.5873C54.5299 15.2714 54.7762 14.9029 54.9562 14.4815C55.1363 14.0601 55.2265 13.6084 55.2265 13.1258C55.2265 12.6432 55.1363 12.1912 54.9562 11.7701C54.7762 11.3487 54.5299 10.9802 54.2176 10.6644C53.9054 10.3485 53.5363 10.1005 53.1099 9.92078C52.6835 9.74104 52.2285 9.65084 51.7452 9.65084C51.2619 9.65084 50.8219 9.74104 50.4002 9.92078C49.9781 10.1009 49.609 10.3488 49.2924 10.6644C48.9759 10.9802 48.7276 11.3487 48.5472 11.7701C48.3671 12.1915 48.2769 12.6435 48.2769 13.1258C48.2769 13.6081 48.3671 14.0605 48.5472 14.4815C48.7273 14.9029 48.9736 15.2714 49.2858 15.5873C49.598 15.9031 49.9648 16.1531 50.3869 16.3375C50.8089 16.5219 51.2616 16.6141 51.7452 16.6141Z" fill="white"/>
<path d="M17.5489 1.27182H2.81858C1.7195 1.27182 0.828125 2.16286 0.828125 3.26194V5.9404C0.828125 5.96436 0.828457 5.98866 0.829456 6.01229C0.846098 6.47862 1.02384 6.90367 1.30776 7.23453C1.30776 7.23386 1.30776 7.23319 1.30776 7.23286L1.31242 7.23919C1.31376 7.24086 1.31542 7.24318 1.31675 7.24484L1.32208 7.25217C1.46654 7.41693 1.63762 7.55806 1.82868 7.66757C1.83067 7.66856 1.83234 7.6699 1.834 7.67123L4.19925 9.1158C4.19925 9.1158 4.19792 9.11447 4.19725 9.11381C3.87505 8.91576 4.1643 7.02782 4.78607 7.02782C4.79173 7.02782 4.79439 7.02749 4.79572 7.02649L13.2149 6.95593C13.2169 6.95593 13.2189 6.95593 13.2212 6.95593C13.4086 6.95593 13.5757 6.87105 13.6875 6.73791L17.6894 1.57871C17.7147 1.54642 17.7297 1.50581 17.7297 1.46154C17.7297 1.35969 17.6495 1.27682 17.5489 1.27182Z" fill="white"/>
<path d="M17.7317 1.46154C17.7317 1.35969 17.6515 1.27648 17.551 1.27148H7.46025C4.95521 1.4186 2.96875 3.49627 2.96875 6.03826C2.96875 7.15065 3.3502 8.17317 3.98761 8.98499L4.20197 9.1158C4.20197 9.1158 4.20063 9.11447 4.19997 9.11381C3.87777 8.91576 4.16702 7.02782 4.78878 7.02782C4.79444 7.02782 4.79711 7.02749 4.79844 7.02649L13.2176 6.95593C13.2196 6.95593 13.2216 6.95593 13.2239 6.95593C13.4113 6.95593 13.5784 6.87105 13.6902 6.73791L17.6921 1.57871C17.7174 1.54642 17.7317 1.50581 17.7317 1.46154Z" fill="white"/>
<path d="M12.0446 8.81973C12.004 8.71122 11.9587 8.60471 11.9104 8.5002L11.6758 8.37305C11.8346 8.48655 11.9614 8.64099 12.0446 8.81973Z" fill="white"/>
<path d="M4.19771 9.11316C4.19771 9.11316 4.19904 9.11449 4.19971 9.11516L8.72716 11.8802L11.5504 10.3038C11.5497 10.3011 11.5517 10.2981 11.5567 10.2955C11.5637 10.2918 11.5704 10.2881 11.577 10.2841C11.58 10.2825 11.5827 10.2808 11.5857 10.2791C11.9239 10.0824 12.1512 9.71629 12.1512 9.2969C12.1512 8.91578 11.9631 8.57894 11.6752 8.37323L9.12359 6.99023L4.79585 7.02652C4.79585 7.02652 4.79185 7.02785 4.78619 7.02785C4.16443 7.02785 3.66016 7.53212 3.66016 8.15388C3.66016 8.55996 3.87551 8.91511 4.19771 9.11316Z" fill="white"/>
<path d="M4.27453 16.9086L8.38125 22.2296C8.38691 22.2352 8.39224 22.2406 8.39656 22.2466C8.56033 22.4656 8.76869 22.6493 9.00768 22.7854C9.28961 22.9462 9.61447 23.0404 9.96097 23.0457C9.97095 23.0457 9.98094 23.0457 9.99126 23.0457H10.1311C9.51495 23.0457 9.014 22.5551 8.9967 21.9433L8.90616 15.0723L5.20818 15.1095C5.20485 15.1099 5.20218 15.1109 5.19786 15.1109C4.57076 15.1109 4.0625 15.6191 4.0625 16.2462C4.0625 16.4915 4.14039 16.7186 4.27253 16.904C4.27419 16.9066 4.27553 16.9089 4.27719 16.9116L4.27453 16.9086Z" fill="white"/>
<path d="M18.0576 22.6911L8.9375 17.4863L8.99608 21.9416C9.01339 22.553 9.51433 23.0436 10.1301 23.044H17.9584C18.0636 23.044 18.1488 22.9587 18.1488 22.8536C18.1488 22.7847 18.1125 22.7244 18.0576 22.6911Z" fill="white"/>
<path d="M18.0576 22.6911L8.9375 17.4863L8.96746 19.7687C10.5545 21.7645 13.003 23.044 15.751 23.044H17.9584C18.0636 23.044 18.1488 22.9587 18.1488 22.8536C18.1488 22.7847 18.1125 22.7244 18.0576 22.6911Z" fill="white"/>
<path d="M3.78516 7.63661C3.97255 7.27513 4.35001 7.02782 4.78538 7.02782C4.79104 7.02782 4.79503 7.02649 4.79503 7.02649L13.2142 6.95593C13.2162 6.95593 13.2182 6.95593 13.2205 6.95593C13.4079 6.95593 13.575 6.87105 13.6868 6.73791L17.6887 1.57871C17.714 1.54642 17.729 1.50581 17.729 1.46154C17.729 1.35969 17.6488 1.27648 17.5482 1.27148H14.6268C9.97653 1.27215 5.9244 3.82978 3.79714 7.61464" fill="white"/>
<path d="M13.3631 10.5363C13.3637 10.5169 13.3637 10.498 13.3637 10.4787C13.3637 10.1015 13.2589 9.74906 13.0768 9.44849C12.8938 9.14659 12.6331 8.89729 12.3223 8.72853C12.3133 8.72354 12.3049 8.71788 12.2973 8.71156L11.6732 8.37305C11.9611 8.57908 12.1492 8.91593 12.1492 9.29671C12.1492 9.7161 11.9218 10.0822 11.5837 10.279C11.5807 10.2806 11.578 10.2823 11.575 10.2839C11.5683 10.2879 11.5614 10.2916 11.5547 10.2953C11.5497 10.2979 11.5477 10.3009 11.5484 10.3036L4.95424 13.9856C4.94592 13.9916 4.9376 13.9969 4.92861 14.0016C4.49324 14.2419 4.1574 14.6406 3.99896 15.12C3.93405 15.3167 3.89844 15.5267 3.89844 15.7454C3.89844 16.1791 4.03724 16.5798 4.27256 16.9067L4.27489 16.9097C4.27323 16.907 4.27223 16.9047 4.27023 16.902C4.13809 16.7163 4.0602 16.4893 4.0602 16.2443C4.0602 15.6172 4.56847 15.109 5.19556 15.109C5.19956 15.109 5.20255 15.108 5.20588 15.1076L11.3457 15.0454C11.3547 15.0451 11.363 15.0444 11.373 15.0444C12.472 15.0444 13.3634 14.1534 13.3634 13.0539C13.3634 13.0506 13.3637 13.0476 13.3637 13.0446V10.5912C13.3624 10.5732 13.3628 10.555 13.3631 10.5363Z" fill="white"/>
<path d="M12.1195 9.0433C12.1382 9.12518 12.1492 9.20973 12.1492 9.29727C12.1492 9.71666 11.9218 10.0828 11.5837 10.2795C11.5807 10.2812 11.578 10.2828 11.575 10.2845C11.5683 10.2885 11.5614 10.2922 11.5547 10.2958C11.5497 10.2985 11.5477 10.3015 11.5484 10.3041L4.95424 13.9862C4.94592 13.9921 4.9376 13.9975 4.92861 14.0021C4.49324 14.2424 4.1574 14.6412 3.99896 15.1205C3.93405 15.3172 3.89844 15.5273 3.89844 15.7459C3.89844 16.1796 4.03724 16.5804 4.27256 16.9073L4.27489 16.9103C4.27323 16.9076 4.27223 16.9053 4.27023 16.9026C4.13809 16.7169 4.0602 16.4899 4.0602 16.2449C4.0602 15.6178 4.56847 15.1095 5.19556 15.1095C5.19956 15.1095 5.20255 15.1085 5.20588 15.1082L7.99584 15.0799C10.419 14.9251 12.3366 12.912 12.3366 10.4496C12.3366 9.95931 12.2606 9.48699 12.1195 9.0433Z" fill="white"/>
<path d="M4.09766 15.9595C4.10227 15.9417 4.10721 15.9239 4.11282 15.9061C4.11677 15.8929 4.12139 15.88 4.126 15.8672C4.11546 15.8975 4.10557 15.9282 4.09766 15.9595Z" fill="white"/>
<path d="M4.15234 15.802C4.15729 15.7905 4.16256 15.7789 4.16784 15.7677C4.1741 15.7546 4.18036 15.7414 4.18695 15.7285C4.17476 15.7526 4.16289 15.777 4.15234 15.802Z" fill="white"/>
<path d="M4.22656 15.6568C4.22979 15.6513 4.23335 15.6461 4.2369 15.6406L4.2382 15.6387C4.23432 15.6448 4.23012 15.6506 4.22656 15.6568Z" fill="white"/>
<path d="M18.0576 22.6911L8.9375 17.4863L8.96746 19.7687L8.99608 21.9416C9.01339 22.553 9.51433 23.0436 10.1301 23.044H17.9584C18.0636 23.044 18.1488 22.9587 18.1488 22.8536C18.1488 22.7847 18.1125 22.7244 18.0576 22.6911Z" fill="white"/>
<path d="M4.26799 9.22818L8.66563 11.914L8.72555 11.8803L4.1981 9.11535L1.83285 7.67077C1.83119 7.66944 1.82952 7.66811 1.82752 7.66711C1.63614 7.55727 1.46605 7.41581 1.32159 7.25105L1.32059 7.25171L1.31527 7.24439C1.31527 7.24439 1.31227 7.24139 1.31094 7.23973C1.31094 7.2394 1.31094 7.24006 1.31094 7.23973L1.30628 7.23241C1.30628 7.23241 1.30628 7.23374 1.30628 7.23407C1.25369 7.17282 1.20509 7.10825 1.16016 7.04102C1.22273 7.14953 1.29463 7.25204 1.37584 7.34657C1.37584 7.34591 1.37584 7.34524 1.37584 7.34491L1.38051 7.35123C1.38184 7.3529 1.3835 7.35523 1.38483 7.35689L1.39016 7.36421L1.39116 7.36355C1.53561 7.52831 1.70603 7.67011 1.89709 7.77961C1.89909 7.78061 1.90075 7.78194 1.90242 7.78327L4.26799 9.22818Z" fill="white"/>
<path d="M9.00465 22.7839C8.76566 22.6478 8.5573 22.464 8.39353 22.245C8.38921 22.2394 8.38421 22.2337 8.37822 22.228L4.2715 16.9071C4.25585 16.8851 4.24121 16.8625 4.22656 16.8398C4.22956 16.8448 4.23189 16.8502 4.23488 16.8552C4.2472 16.8765 4.25985 16.8974 4.27316 16.9184C4.2948 16.9527 4.31743 16.9866 4.34106 17.0196L8.44779 22.3406C8.45345 22.3462 8.45877 22.3515 8.4631 22.3575C8.62686 22.5765 8.83523 22.7603 9.07422 22.8964C9.35614 23.0572 9.681 23.1514 10.0275 23.1567C10.0375 23.1567 10.0475 23.1567 10.0578 23.1567H10.1976C9.99755 23.1567 9.80949 23.1044 9.64639 23.0136C9.41672 22.9736 9.20004 22.8954 9.00465 22.7839Z" fill="white"/>
<path d="M8.97681 15.3923L8.97415 15.1836L8.90625 15.1843L8.90758 15.2798L8.91024 15.4778L8.99545 21.9418C9.00211 22.1722 9.077 22.3852 9.20116 22.5613C9.11894 22.4098 9.07035 22.2374 9.06502 22.0543L8.97981 15.5903L8.97681 15.3923Z" fill="white"/>
<path d="M17.7341 1.43211C17.7315 1.42978 17.7285 1.42811 17.7258 1.42578C17.7281 1.43743 17.7298 1.44908 17.7298 1.4614C17.7298 1.48836 17.7235 1.51399 17.7135 1.53729C17.7072 1.55193 17.6992 1.56624 17.6895 1.57889L13.6876 6.7381C13.6277 6.80966 13.5515 6.86625 13.465 6.90419C13.3904 6.93714 13.3082 6.95578 13.2213 6.95578C13.2197 6.95578 13.218 6.95578 13.2167 6.95578C13.2163 6.95578 13.2157 6.95578 13.2153 6.95578L4.80783 7.02768C4.8035 7.02768 4.79951 7.02735 4.79518 7.02735C4.16842 7.02735 3.66016 7.53561 3.66016 8.16237C3.66016 8.27155 3.6758 8.37706 3.70476 8.47692C3.69244 8.40968 3.68579 8.34078 3.68579 8.27021C3.68579 7.64345 4.19405 7.13519 4.82081 7.13519C4.84378 7.13519 4.91401 7.13519 5.00288 7.13519L5.01087 7.13952L13.2852 7.06862C13.2852 7.06862 13.2862 7.06862 13.2866 7.06862C13.2882 7.06862 13.2896 7.06862 13.2912 7.06862C13.3781 7.06862 13.4603 7.04965 13.5349 7.01703C13.6214 6.97908 13.6976 6.92216 13.7575 6.85093L17.7594 1.69173C17.7691 1.67908 17.7771 1.6651 17.7834 1.65012C17.7937 1.62682 17.7997 1.60153 17.7997 1.57423C17.7997 1.51732 17.7737 1.46705 17.7341 1.43211Z" fill="white"/>
<path d="M13.4057 10.6404C13.4064 10.6211 13.4064 10.6021 13.4064 10.5828C13.4064 10.2057 13.3016 9.85317 13.1195 9.55261C13.1055 9.52931 13.0899 9.50701 13.0749 9.48438C13.241 9.77529 13.3372 10.1111 13.3372 10.4703C13.3372 10.4896 13.3372 10.5089 13.3365 10.5279C13.3358 10.5465 13.3365 10.5648 13.3378 10.5831V13.0366C13.3378 13.0399 13.3375 13.0429 13.3375 13.0459C13.3375 14.145 12.4465 15.0363 11.3471 15.0363C11.3371 15.0363 11.3287 15.037 11.3198 15.0373L5.15834 15.1119C4.54789 15.1312 4.05859 15.6315 4.05859 16.2466C4.05859 16.3558 4.07956 16.4619 4.10819 16.5618C4.09587 16.4946 4.08389 16.425 4.08389 16.3544C4.08389 15.748 4.55987 15.2524 5.15834 15.2211L5.31145 15.2194C5.40431 15.2194 5.54644 15.2191 5.67459 15.2187C5.67193 15.2174 5.66926 15.2164 5.6666 15.2154L11.389 15.1505C11.398 15.1502 11.4063 15.1495 11.4163 15.1495C12.5154 15.1495 13.4067 14.2585 13.4067 13.1591C13.4067 13.1557 13.4071 13.1527 13.4071 13.1497V10.6963C13.4057 10.6783 13.4054 10.6591 13.4057 10.6404Z" fill="white"/>
<path d="M12.1495 9.29573C12.1495 8.80078 11.8327 8.38005 11.3906 8.22461C11.4812 8.29185 11.7594 8.5082 11.9012 8.72655C11.9029 8.72921 11.9042 8.73188 11.9059 8.73454C12.043 8.92227 12.1239 9.15327 12.1239 9.40324C12.1239 9.4738 12.1172 9.54304 12.1049 9.60994C12.1336 9.51008 12.1495 9.40491 12.1495 9.29573Z" fill="white"/>
<path d="M18.1423 22.8158C18.1446 22.8278 18.1463 22.8405 18.1463 22.8531C18.1463 22.9583 18.0611 23.0435 17.9559 23.0435H10.1275C9.74376 23.0435 9.40459 22.8525 9.19922 22.5605C9.39094 22.915 9.76573 23.156 10.1971 23.156H18.0255C18.1306 23.156 18.2158 23.0708 18.2158 22.9656C18.2158 22.9047 18.1869 22.8505 18.1423 22.8158Z" fill="white"/>
<g opacity="0.4">
<path d="M4.26799 9.22818L8.66563 11.914L8.72555 11.8803L4.1981 9.11535L1.83285 7.67077C1.83119 7.66944 1.82952 7.66811 1.82752 7.66711C1.63614 7.55727 1.46605 7.41581 1.32159 7.25105L1.32059 7.25171L1.31527 7.24439C1.31527 7.24439 1.31227 7.24139 1.31094 7.23973C1.31094 7.2394 1.31094 7.24006 1.31094 7.23973L1.30628 7.23241C1.30628 7.23241 1.30628 7.23374 1.30628 7.23407C1.25369 7.17282 1.20509 7.10825 1.16016 7.04102C1.22273 7.14953 1.29463 7.25204 1.37584 7.34657C1.37584 7.34591 1.37584 7.34524 1.37584 7.34491L1.38051 7.35123C1.38184 7.3529 1.3835 7.35523 1.38483 7.35689L1.39016 7.36421L1.39116 7.36355C1.53561 7.52831 1.70603 7.67011 1.89709 7.77961C1.89909 7.78061 1.90075 7.78194 1.90242 7.78327L4.26799 9.22818Z" fill="white"/>
<path d="M9.00465 22.7839C8.76566 22.6478 8.5573 22.464 8.39353 22.245C8.38921 22.2394 8.38421 22.2337 8.37822 22.228L4.2715 16.9071C4.25585 16.8851 4.24121 16.8625 4.22656 16.8398C4.22956 16.8448 4.23189 16.8502 4.23488 16.8552C4.2472 16.8765 4.25985 16.8974 4.27316 16.9184C4.2948 16.9527 4.31743 16.9866 4.34106 17.0196L8.44779 22.3406C8.45345 22.3462 8.45877 22.3515 8.4631 22.3575C8.62686 22.5765 8.83523 22.7603 9.07422 22.8964C9.35614 23.0572 9.681 23.1514 10.0275 23.1567C10.0375 23.1567 10.0475 23.1567 10.0578 23.1567H10.1976C9.99755 23.1567 9.80949 23.1044 9.64639 23.0136C9.41672 22.9736 9.20004 22.8954 9.00465 22.7839Z" fill="white"/>
<path d="M8.97681 15.3923L8.97415 15.1836L8.90625 15.1843L8.90758 15.2798L8.91024 15.4778L8.99545 21.9418C9.00211 22.1722 9.077 22.3852 9.20116 22.5613C9.11894 22.4098 9.07035 22.2374 9.06502 22.0543L8.97981 15.5903L8.97681 15.3923Z" fill="white"/>
<path d="M17.7341 1.43211C17.7315 1.42978 17.7285 1.42811 17.7258 1.42578C17.7281 1.43743 17.7298 1.44908 17.7298 1.4614C17.7298 1.48836 17.7235 1.51399 17.7135 1.53729C17.7072 1.55193 17.6992 1.56624 17.6895 1.57889L13.6876 6.7381C13.6277 6.80966 13.5515 6.86625 13.465 6.90419C13.3904 6.93714 13.3082 6.95578 13.2213 6.95578C13.2197 6.95578 13.218 6.95578 13.2167 6.95578C13.2163 6.95578 13.2157 6.95578 13.2153 6.95578L4.80783 7.02768C4.8035 7.02768 4.79951 7.02735 4.79518 7.02735C4.16842 7.02735 3.66016 7.53561 3.66016 8.16237C3.66016 8.27155 3.6758 8.37706 3.70476 8.47692C3.69244 8.40968 3.68579 8.34078 3.68579 8.27021C3.68579 7.64345 4.19405 7.13519 4.82081 7.13519C4.84378 7.13519 4.91401 7.13519 5.00288 7.13519L5.01087 7.13952L13.2852 7.06862C13.2852 7.06862 13.2862 7.06862 13.2866 7.06862C13.2882 7.06862 13.2896 7.06862 13.2912 7.06862C13.3781 7.06862 13.4603 7.04965 13.5349 7.01703C13.6214 6.97908 13.6976 6.92216 13.7575 6.85093L17.7594 1.69173C17.7691 1.67908 17.7771 1.6651 17.7834 1.65012C17.7937 1.62682 17.7997 1.60153 17.7997 1.57423C17.7997 1.51732 17.7737 1.46705 17.7341 1.43211Z" fill="white"/>
<path d="M13.4057 10.6404C13.4064 10.6211 13.4064 10.6021 13.4064 10.5828C13.4064 10.2057 13.3016 9.85317 13.1195 9.55261C13.1055 9.52931 13.0899 9.50701 13.0749 9.48438C13.241 9.77529 13.3372 10.1111 13.3372 10.4703C13.3372 10.4896 13.3372 10.5089 13.3365 10.5279C13.3358 10.5465 13.3365 10.5648 13.3378 10.5831V13.0366C13.3378 13.0399 13.3375 13.0429 13.3375 13.0459C13.3375 14.145 12.4465 15.0363 11.3471 15.0363C11.3371 15.0363 11.3287 15.037 11.3198 15.0373L5.15834 15.1119C4.54789 15.1312 4.05859 15.6315 4.05859 16.2466C4.05859 16.3558 4.07956 16.4619 4.10819 16.5618C4.09587 16.4946 4.08389 16.425 4.08389 16.3544C4.08389 15.748 4.55987 15.2524 5.15834 15.2211L5.31145 15.2194C5.40431 15.2194 5.54644 15.2191 5.67459 15.2187C5.67193 15.2174 5.66926 15.2164 5.6666 15.2154L11.389 15.1505C11.398 15.1502 11.4063 15.1495 11.4163 15.1495C12.5154 15.1495 13.4067 14.2585 13.4067 13.1591C13.4067 13.1557 13.4071 13.1527 13.4071 13.1497V10.6963C13.4057 10.6783 13.4054 10.6591 13.4057 10.6404Z" fill="white"/>
<path d="M12.1495 9.29573C12.1495 8.80078 11.8327 8.38005 11.3906 8.22461C11.4812 8.29185 11.7594 8.5082 11.9012 8.72655C11.9029 8.72921 11.9042 8.73188 11.9059 8.73454C12.043 8.92227 12.1239 9.15327 12.1239 9.40324C12.1239 9.4738 12.1172 9.54304 12.1049 9.60994C12.1336 9.51008 12.1495 9.40491 12.1495 9.29573Z" fill="white"/>
<path d="M18.1423 22.8158C18.1446 22.8278 18.1463 22.8405 18.1463 22.8531C18.1463 22.9583 18.0611 23.0435 17.9559 23.0435H10.1275C9.74376 23.0435 9.40459 22.8525 9.19922 22.5605C9.39094 22.915 9.76573 23.156 10.1971 23.156H18.0255C18.1306 23.156 18.2158 23.0708 18.2158 22.9656C18.2158 22.9047 18.1869 22.8505 18.1423 22.8158Z" fill="white"/>
</g>
<path d="M29.322 10.4706C28.9958 9.72299 28.5518 9.06894 27.9906 8.50841C27.4294 7.94756 26.7723 7.50653 26.0198 7.18499C25.2672 6.86346 24.4643 6.70236 23.6119 6.70236C22.7595 6.70236 21.9626 6.86313 21.2234 7.18499C20.9151 7.3188 20.6236 7.47391 20.348 7.64932C20.1529 7.06949 19.6034 6.64844 18.96 6.64844C18.1548 6.64844 17.4961 7.30715 17.4961 8.11232V12.4078C17.4961 12.473 17.5008 12.5369 17.5091 12.5998C17.5054 12.6894 17.5034 12.7792 17.5034 12.8698V17.8635C17.5034 18.0636 17.5444 18.2507 17.6269 18.4244C17.7091 18.5982 17.8176 18.7479 17.9518 18.8741C18.0859 19.0002 18.244 19.1001 18.4261 19.174C18.6078 19.2479 18.7982 19.2848 18.9976 19.2848C19.197 19.2848 19.37 19.2479 19.5435 19.174C19.7165 19.1001 19.866 19.0002 19.9918 18.8738C20.1173 18.7476 20.2168 18.5975 20.2907 18.4234C20.3643 18.2493 20.4012 18.0623 20.4012 17.8622V12.8631C20.4012 12.7709 20.4056 12.68 20.4122 12.5898C20.4169 12.5529 20.4205 12.5156 20.4222 12.4777C20.4555 12.1668 20.5284 11.8686 20.6432 11.584C20.8043 11.1839 21.029 10.838 21.3169 10.5465C21.6045 10.2549 21.9423 10.0246 22.3304 9.85447C22.7182 9.68471 23.1433 9.59983 23.6056 9.59983C24.0679 9.59983 24.471 9.68704 24.8678 9.86079C25.2645 10.0349 25.613 10.2699 25.9139 10.5654C26.2148 10.8613 26.4545 11.2072 26.6332 11.6029C26.812 11.999 26.9055 12.4234 26.9145 12.8754V17.8616C26.9145 18.0616 26.9537 18.2487 27.032 18.4227C27.1102 18.5968 27.2167 18.7469 27.3515 18.8731C27.4863 18.9992 27.6431 19.0994 27.8215 19.1733C27.9996 19.2472 28.189 19.2842 28.3893 19.2842C28.5897 19.2842 28.7764 19.2472 28.9505 19.1733C29.1246 19.0994 29.2747 18.9996 29.4009 18.8734C29.527 18.7473 29.6269 18.5975 29.7011 18.4237C29.775 18.25 29.8119 18.0629 29.8119 17.8629V12.8691C29.8119 12.0173 29.6485 11.2182 29.322 10.4706Z" fill="white"/>
<path d="M20.4006 12.8625C20.4006 12.7703 20.4049 12.6795 20.4116 12.5893C20.4159 12.554 20.4192 12.5184 20.4212 12.4824C20.4013 12.6711 20.3906 12.8625 20.3906 13.0566C20.3906 13.1188 20.3943 13.1821 20.4006 13.2463V12.8625Z" fill="white"/>
<path d="M27.9915 8.50805C27.7845 8.30135 27.5645 8.11096 27.3315 7.93688C26.8315 7.78243 26.2999 7.69922 25.7494 7.69922C22.9951 7.69922 20.7267 9.77755 20.4258 12.4517C20.4601 12.1501 20.532 11.8605 20.6435 11.5839C20.8046 11.1838 21.0292 10.838 21.3172 10.5464C21.6047 10.2549 21.9426 10.0245 22.3307 9.85443C22.7185 9.68468 23.1435 9.5998 23.6058 9.5998C24.0682 9.5998 24.4713 9.68701 24.868 9.86076C25.2648 10.0348 25.6133 10.2698 25.9142 10.5654C26.2151 10.8613 26.4547 11.2071 26.6335 11.6029C26.8122 11.999 26.9057 12.4234 26.9147 12.8754V17.8615C26.9147 18.0616 26.954 18.2486 27.0322 18.4227C27.1104 18.5968 27.217 18.7469 27.3518 18.8731C27.4866 18.9992 27.6433 19.0994 27.8217 19.1733C27.9998 19.2472 28.1892 19.2841 28.3896 19.2841C28.59 19.2841 28.7767 19.2472 28.9508 19.1733C29.1249 19.0994 29.275 18.9995 29.4011 18.8734C29.5273 18.7472 29.6271 18.5975 29.7014 18.4237C29.7753 18.25 29.8122 18.0629 29.8122 17.8628V12.8691C29.8122 12.0173 29.6491 11.2175 29.3226 10.4699C28.9964 9.72229 28.5527 9.06857 27.9915 8.50805Z" fill="white"/>
<path d="M20.3423 7.63272C20.1429 7.06055 19.5981 6.64648 18.96 6.64648C18.1548 6.64648 17.4961 7.3052 17.4961 8.11037V12.4058C17.4961 12.4468 17.4984 12.487 17.5021 12.527C17.5886 10.4646 18.701 8.66722 20.3423 7.63272Z" fill="white"/>
<path d="M20.4006 12.8625C20.4006 12.7703 20.4049 12.6795 20.4116 12.5893C20.4159 12.554 20.4192 12.5184 20.4212 12.4824C20.4013 12.6711 20.3906 12.8625 20.3906 13.0566C20.3906 13.1188 20.3943 13.1821 20.4006 13.2463V12.8625Z" fill="white"/>
<path d="M23.6058 9.59878C24.0505 9.59878 24.4713 9.68599 24.868 9.85973C25.2648 10.0338 25.6133 10.2688 25.9142 10.5644C26.2151 10.8603 26.4547 11.2061 26.6335 11.6019C26.8122 11.998 26.9057 12.4224 26.9147 12.8744V17.8605C26.9147 18.0605 26.954 18.2476 27.0322 18.4217C27.1104 18.5958 27.217 18.7459 27.3518 18.872C27.4866 18.9982 27.6433 19.0984 27.8217 19.1723C27.9998 19.2462 28.1892 19.2831 28.3896 19.2831C28.59 19.2831 28.7767 19.2462 28.9508 19.1723C29.1249 19.0984 29.275 18.9985 29.4011 18.8724C29.5273 18.7462 29.6271 18.5964 29.7014 18.4227C29.7753 18.2489 29.8122 18.0619 29.8122 17.8618V12.868C29.8122 12.4773 29.7776 12.0975 29.7087 11.7287C28.9155 9.98855 27.1607 8.77896 25.1237 8.7793C23.1235 8.7793 21.3957 9.94528 20.5829 11.6345C20.5103 11.8988 20.4571 12.1714 20.4258 12.4503C20.4601 12.1488 20.532 11.8592 20.6435 11.5826C20.8046 11.1825 21.0292 10.8367 21.3172 10.5451C21.6047 10.2535 21.9426 10.0232 22.3307 9.85308C22.7185 9.68332 23.1435 9.59878 23.6058 9.59878Z" fill="white"/>
<path d="M20.3496 7.64796C20.3679 7.63631 20.3869 7.62566 20.4052 7.61401C20.3147 7.40864 20.1785 7.22724 20.0091 7.08345C20.0081 7.08245 20.0068 7.08178 20.0058 7.08078C19.9925 7.06947 19.9785 7.05948 19.9648 7.04883C20.1379 7.21259 20.2724 7.4173 20.3496 7.64796Z" fill="white"/>
<path d="M29.9139 12.8066C29.9132 12.7849 29.9126 12.7633 29.9116 12.7417C29.9106 12.7137 29.9099 12.6858 29.9086 12.6578C29.9072 12.6292 29.9056 12.6006 29.9036 12.5723C29.9022 12.552 29.9013 12.532 29.8999 12.5117C29.8976 12.4787 29.8949 12.4458 29.8919 12.4128C29.8906 12.3978 29.8896 12.3832 29.8879 12.3682C29.8866 12.3556 29.8859 12.3426 29.8846 12.3299C29.8823 12.3063 29.8793 12.2827 29.8766 12.259C29.8753 12.2484 29.8743 12.2377 29.873 12.2271C29.871 12.2101 29.8693 12.1928 29.8673 12.1758C29.8646 12.1535 29.8613 12.1316 29.8583 12.1093C29.8573 12.1023 29.8563 12.0956 29.8556 12.0886C29.8497 12.0467 29.8437 12.0047 29.8367 11.9628C29.836 11.9595 29.8357 11.9561 29.835 11.9528C29.8224 11.8749 29.8087 11.7974 29.7931 11.7205C29.7728 11.6206 29.7498 11.5214 29.7242 11.4229C29.6985 11.3247 29.6706 11.2272 29.64 11.1303C29.6093 11.0335 29.5764 10.9376 29.5404 10.8428C29.5048 10.7476 29.4665 10.6534 29.4256 10.5598C29.3644 10.4197 29.2991 10.2829 29.2296 10.1491C29.2063 10.1045 29.183 10.0606 29.1587 10.0166C28.9856 9.70174 28.7885 9.4055 28.5678 9.12824C28.5173 9.06433 28.465 9.00176 28.4117 8.93985C28.4034 8.92986 28.3948 8.92021 28.3861 8.91055C28.2926 8.80338 28.1951 8.69886 28.0935 8.59767C28.0473 8.55141 28 8.50614 27.9524 8.46154C27.9411 8.45089 27.9294 8.44023 27.9178 8.42958C27.8702 8.38565 27.8223 8.34238 27.7737 8.3001C27.7511 8.28046 27.7274 8.26149 27.7044 8.24219C27.7414 8.27481 27.778 8.30743 27.8143 8.34071C27.8259 8.35136 27.8372 8.36201 27.8489 8.37267C27.8965 8.41727 27.9437 8.46254 27.99 8.5088C28.0912 8.60999 28.1887 8.7145 28.2826 8.82168C28.2912 8.83134 28.2996 8.84132 28.3082 8.85097C28.3615 8.91288 28.4134 8.97546 28.4643 9.03937C28.685 9.31663 28.8821 9.61254 29.0551 9.92775C29.0791 9.97169 29.1027 10.0156 29.126 10.0602C29.1956 10.1937 29.2608 10.3308 29.3221 10.471C29.363 10.5645 29.401 10.6587 29.4369 10.7539C29.4725 10.8491 29.5058 10.9449 29.5364 11.0415C29.5671 11.1383 29.595 11.2359 29.6207 11.334C29.6463 11.4322 29.6693 11.5314 29.6896 11.6316C29.7052 11.7085 29.7188 11.7861 29.7315 11.8639C29.7322 11.8673 29.7325 11.8706 29.7332 11.8739C29.7398 11.9159 29.7461 11.9578 29.7521 11.9998C29.7531 12.0067 29.7541 12.0134 29.7548 12.0204C29.7578 12.0427 29.7611 12.0647 29.7638 12.087C29.7658 12.1039 29.7674 12.1212 29.7694 12.1382C29.7708 12.1489 29.7718 12.1595 29.7731 12.1702C29.7758 12.1938 29.7788 12.2174 29.7811 12.2411C29.7824 12.2537 29.7831 12.2667 29.7844 12.2793C29.7857 12.2943 29.7871 12.309 29.7884 12.3239C29.7911 12.3569 29.7941 12.3899 29.7964 12.4228C29.7977 12.4428 29.7987 12.4631 29.8001 12.4834C29.8017 12.512 29.8037 12.5403 29.8051 12.5689C29.8064 12.5969 29.8071 12.6248 29.8081 12.6528C29.8087 12.6744 29.8097 12.6961 29.8104 12.7177C29.8117 12.7683 29.812 12.8189 29.812 12.8695V17.8633C29.812 17.8882 29.8114 17.9132 29.8104 17.9378C29.8094 17.9625 29.8074 17.9868 29.8051 18.0111C29.7951 18.1139 29.7744 18.2128 29.7438 18.3083C29.7332 18.3412 29.7215 18.3735 29.7082 18.4058C29.7055 18.4121 29.7035 18.4181 29.7009 18.4245C29.6949 18.4384 29.6876 18.4514 29.6812 18.4654C29.6093 18.6215 29.5165 18.7583 29.4006 18.8741C29.3374 18.937 29.2685 18.9936 29.1936 19.0436C29.1187 19.0935 29.0375 19.1371 28.9506 19.174C28.9143 19.1894 28.8774 19.2027 28.8401 19.215C28.8265 19.2193 28.8125 19.2236 28.7985 19.228C28.7406 19.2449 28.6813 19.2579 28.6211 19.2672C28.5935 19.2716 28.5652 19.2752 28.5369 19.2779C28.5126 19.2802 28.4883 19.2819 28.4637 19.2832C28.439 19.2842 28.4144 19.2849 28.3891 19.2849C28.3638 19.2849 28.3392 19.2842 28.3145 19.2832C28.1911 19.2776 28.0719 19.2573 27.9571 19.2226C27.9111 19.2087 27.8659 19.1927 27.8213 19.174C27.8069 19.168 27.794 19.1611 27.78 19.1551C27.6625 19.1028 27.5543 19.0396 27.4565 18.9637C27.4551 18.9627 27.4541 18.9617 27.4531 18.9607C27.4535 18.961 27.4541 18.9617 27.4545 18.962C27.4545 18.962 27.4551 18.9627 27.4555 18.963C27.4891 18.9946 27.5244 19.0246 27.5606 19.0529C27.6585 19.1288 27.7667 19.1917 27.8842 19.2443C27.8981 19.2506 27.9111 19.2576 27.9254 19.2632C27.97 19.2819 28.0153 19.2979 28.0612 19.3118C28.1761 19.3465 28.2952 19.3668 28.4187 19.3724C28.4434 19.3734 28.4683 19.3741 28.4933 19.3741C28.5183 19.3741 28.5432 19.3734 28.5678 19.3724C28.5925 19.3714 28.6168 19.3694 28.6411 19.3671C28.6694 19.3644 28.6973 19.3608 28.7253 19.3564C28.7859 19.3471 28.8448 19.3338 28.9027 19.3172C28.9167 19.3132 28.9303 19.3088 28.9443 19.3042C28.9816 19.2919 29.0185 19.2786 29.0548 19.2632C29.1417 19.2263 29.2229 19.183 29.2978 19.1328C29.3727 19.0828 29.4419 19.0263 29.5048 18.9633C29.6207 18.8475 29.7135 18.7107 29.7854 18.5546C29.7917 18.541 29.7991 18.528 29.8051 18.5137C29.8077 18.5077 29.8097 18.5013 29.8124 18.495C29.8254 18.4631 29.8373 18.4305 29.848 18.3975C29.8786 18.302 29.8993 18.2031 29.9092 18.1003C29.9116 18.076 29.9132 18.0517 29.9146 18.027C29.9156 18.0024 29.9162 17.9778 29.9162 17.9525V12.9587C29.9162 12.9078 29.9149 12.8569 29.9139 12.8066Z" fill="white"/>
<path d="M25.6797 10.3555C25.5578 10.256 25.4294 10.1651 25.2942 10.0826C25.204 10.0277 25.1108 9.9764 25.0146 9.92913C24.9667 9.9055 24.9178 9.88287 24.8682 9.8609C24.8389 9.84792 24.8089 9.8366 24.7793 9.82462C24.5087 9.71577 24.2274 9.64554 23.9348 9.61592C23.8267 9.60493 23.7172 9.59961 23.606 9.59961C23.375 9.59961 23.153 9.62091 22.9406 9.66318C22.8874 9.67383 22.8351 9.68582 22.7828 9.69913C22.6271 9.73874 22.4763 9.79067 22.3308 9.85424C22.2822 9.87554 22.2346 9.89751 22.1877 9.92081C22 10.0133 21.8246 10.1209 21.6621 10.244C21.54 10.3362 21.4251 10.4371 21.3173 10.5462C21.084 10.7826 20.8929 11.0555 20.7428 11.3634C20.7178 11.4147 20.6939 11.4672 20.6709 11.5205C20.6619 11.5418 20.6523 11.5624 20.6436 11.5841C20.6296 11.619 20.616 11.6543 20.6033 11.6896C20.5963 11.7089 20.59 11.7285 20.5834 11.7482C20.578 11.7638 20.5724 11.7798 20.5671 11.7954C20.5584 11.8224 20.5501 11.8497 20.5421 11.877C20.5398 11.8853 20.5368 11.8936 20.5344 11.9019C20.5254 11.9336 20.5168 11.9655 20.5088 11.9978C20.5078 12.0018 20.5068 12.0055 20.5058 12.0095C20.4972 12.0447 20.4888 12.08 20.4812 12.1156C20.4812 12.1163 20.4808 12.117 20.4808 12.1176C20.4659 12.1879 20.4532 12.2588 20.4422 12.3303C20.4366 12.3706 20.4306 12.4109 20.4263 12.4518C20.4253 12.4605 20.4239 12.4691 20.4229 12.4778C20.4229 12.4794 20.4229 12.4814 20.4226 12.4831C20.4206 12.5191 20.4173 12.5547 20.4129 12.5896C20.4096 12.6346 20.407 12.6798 20.405 12.7254C20.403 12.771 20.402 12.8166 20.402 12.8629V17.862C20.402 18.062 20.365 18.2491 20.2915 18.4232C20.2179 18.5973 20.1184 18.7474 19.9926 18.8735C19.8667 18.9997 19.7173 19.0999 19.5442 19.1738C19.3708 19.2477 19.189 19.2846 18.9983 19.2846C18.8076 19.2846 18.6086 19.2477 18.4268 19.1738C18.289 19.1178 18.1652 19.0469 18.0547 18.9611C18.0554 18.9617 18.0557 18.9624 18.0564 18.9627C18.1905 19.0889 18.3486 19.1887 18.5307 19.2626C18.7124 19.3365 18.9028 19.3735 19.1022 19.3735C19.3015 19.3735 19.4746 19.3365 19.648 19.2626C19.8211 19.1887 19.9706 19.0889 20.0964 18.9624C20.2219 18.8362 20.3214 18.6861 20.3953 18.5121C20.4689 18.338 20.5058 18.1509 20.5058 17.9509V12.9518C20.5058 12.9055 20.5068 12.8599 20.5088 12.8143C20.5108 12.7687 20.5135 12.7234 20.5168 12.6785C20.5211 12.6432 20.5244 12.6079 20.5264 12.572C20.5264 12.572 20.5264 12.5686 20.5268 12.5667C20.5278 12.558 20.5291 12.5493 20.5301 12.5407C20.5348 12.5001 20.5408 12.4598 20.5461 12.4192C20.5567 12.3476 20.5694 12.2767 20.5847 12.2065C20.5847 12.2058 20.585 12.2052 20.585 12.2045C20.5927 12.1689 20.601 12.1336 20.6097 12.0983C20.6107 12.0943 20.6117 12.0907 20.6127 12.0867C20.6206 12.0547 20.6293 12.0228 20.6383 11.9908C20.6406 11.9825 20.6433 11.9742 20.6459 11.9659C20.6539 11.9386 20.6622 11.9113 20.6709 11.8843C20.6759 11.8683 20.6819 11.8527 20.6872 11.837C20.6939 11.8174 20.7002 11.7978 20.7072 11.7785C20.7202 11.7432 20.7335 11.7079 20.7475 11.6729C20.7561 11.6513 20.7658 11.6307 20.7748 11.6094C20.7974 11.5561 20.8214 11.5035 20.8466 11.4523C20.9968 11.1444 21.1878 10.8718 21.4211 10.6351C21.529 10.5259 21.6438 10.4251 21.766 10.3329C21.9288 10.2101 22.1038 10.1022 22.2916 10.0097C22.3385 9.98672 22.3861 9.96441 22.4347 9.94311C22.5801 9.87954 22.7309 9.82794 22.8867 9.788C22.9386 9.77469 22.9912 9.76271 23.0445 9.75206C23.2568 9.70978 23.4788 9.68848 23.7098 9.68848C23.821 9.68848 23.9305 9.69381 24.0387 9.70479C24.3313 9.73408 24.6125 9.80431 24.8831 9.91349C24.9128 9.92547 24.9427 9.93679 24.972 9.94977C25.0216 9.9714 25.0705 9.99437 25.1185 10.018C25.2147 10.0653 25.3079 10.1165 25.3981 10.1714C25.5332 10.2537 25.6613 10.3445 25.7828 10.4437C25.7489 10.4138 25.715 10.3841 25.6797 10.3555Z" fill="white"/>
<g opacity="0.4">
<path d="M20.3496 7.64796C20.3679 7.63631 20.3869 7.62566 20.4052 7.61401C20.3147 7.40864 20.1785 7.22724 20.0091 7.08345C20.0081 7.08245 20.0068 7.08178 20.0058 7.08078C19.9925 7.06947 19.9785 7.05948 19.9648 7.04883C20.1379 7.21259 20.2724 7.4173 20.3496 7.64796Z" fill="white"/>
<path d="M29.9139 12.8066C29.9132 12.7849 29.9126 12.7633 29.9116 12.7417C29.9106 12.7137 29.9099 12.6858 29.9086 12.6578C29.9072 12.6292 29.9056 12.6006 29.9036 12.5723C29.9022 12.552 29.9013 12.532 29.8999 12.5117C29.8976 12.4787 29.8949 12.4458 29.8919 12.4128C29.8906 12.3978 29.8896 12.3832 29.8879 12.3682C29.8866 12.3556 29.8859 12.3426 29.8846 12.3299C29.8823 12.3063 29.8793 12.2827 29.8766 12.259C29.8753 12.2484 29.8743 12.2377 29.873 12.2271C29.871 12.2101 29.8693 12.1928 29.8673 12.1758C29.8646 12.1535 29.8613 12.1316 29.8583 12.1093C29.8573 12.1023 29.8563 12.0956 29.8556 12.0886C29.8497 12.0467 29.8437 12.0047 29.8367 11.9628C29.836 11.9595 29.8357 11.9561 29.835 11.9528C29.8224 11.8749 29.8087 11.7974 29.7931 11.7205C29.7728 11.6206 29.7498 11.5214 29.7242 11.4229C29.6985 11.3247 29.6706 11.2272 29.64 11.1303C29.6093 11.0335 29.5764 10.9376 29.5404 10.8428C29.5048 10.7476 29.4665 10.6534 29.4256 10.5598C29.3644 10.4197 29.2991 10.2829 29.2296 10.1491C29.2063 10.1045 29.183 10.0606 29.1587 10.0166C28.9856 9.70174 28.7885 9.4055 28.5678 9.12824C28.5173 9.06433 28.465 9.00176 28.4117 8.93985C28.4034 8.92986 28.3948 8.92021 28.3861 8.91055C28.2926 8.80338 28.1951 8.69886 28.0935 8.59767C28.0473 8.55141 28 8.50614 27.9524 8.46154C27.9411 8.45089 27.9294 8.44023 27.9178 8.42958C27.8702 8.38565 27.8223 8.34238 27.7737 8.3001C27.7511 8.28046 27.7274 8.26149 27.7044 8.24219C27.7414 8.27481 27.778 8.30743 27.8143 8.34071C27.8259 8.35136 27.8372 8.36201 27.8489 8.37267C27.8965 8.41727 27.9437 8.46254 27.99 8.5088C28.0912 8.60999 28.1887 8.7145 28.2826 8.82168C28.2912 8.83134 28.2996 8.84132 28.3082 8.85097C28.3615 8.91288 28.4134 8.97546 28.4643 9.03937C28.685 9.31663 28.8821 9.61254 29.0551 9.92775C29.0791 9.97169 29.1027 10.0156 29.126 10.0602C29.1956 10.1937 29.2608 10.3308 29.3221 10.471C29.363 10.5645 29.401 10.6587 29.4369 10.7539C29.4725 10.8491 29.5058 10.9449 29.5364 11.0415C29.5671 11.1383 29.595 11.2359 29.6207 11.334C29.6463 11.4322 29.6693 11.5314 29.6896 11.6316C29.7052 11.7085 29.7188 11.7861 29.7315 11.8639C29.7322 11.8673 29.7325 11.8706 29.7332 11.8739C29.7398 11.9159 29.7461 11.9578 29.7521 11.9998C29.7531 12.0067 29.7541 12.0134 29.7548 12.0204C29.7578 12.0427 29.7611 12.0647 29.7638 12.087C29.7658 12.1039 29.7674 12.1212 29.7694 12.1382C29.7708 12.1489 29.7718 12.1595 29.7731 12.1702C29.7758 12.1938 29.7788 12.2174 29.7811 12.2411C29.7824 12.2537 29.7831 12.2667 29.7844 12.2793C29.7857 12.2943 29.7871 12.309 29.7884 12.3239C29.7911 12.3569 29.7941 12.3899 29.7964 12.4228C29.7977 12.4428 29.7987 12.4631 29.8001 12.4834C29.8017 12.512 29.8037 12.5403 29.8051 12.5689C29.8064 12.5969 29.8071 12.6248 29.8081 12.6528C29.8087 12.6744 29.8097 12.6961 29.8104 12.7177C29.8117 12.7683 29.812 12.8189 29.812 12.8695V17.8633C29.812 17.8882 29.8114 17.9132 29.8104 17.9378C29.8094 17.9625 29.8074 17.9868 29.8051 18.0111C29.7951 18.1139 29.7744 18.2128 29.7438 18.3083C29.7332 18.3412 29.7215 18.3735 29.7082 18.4058C29.7055 18.4121 29.7035 18.4181 29.7009 18.4245C29.6949 18.4384 29.6876 18.4514 29.6812 18.4654C29.6093 18.6215 29.5165 18.7583 29.4006 18.8741C29.3374 18.937 29.2685 18.9936 29.1936 19.0436C29.1187 19.0935 29.0375 19.1371 28.9506 19.174C28.9143 19.1894 28.8774 19.2027 28.8401 19.215C28.8265 19.2193 28.8125 19.2236 28.7985 19.228C28.7406 19.2449 28.6813 19.2579 28.6211 19.2672C28.5935 19.2716 28.5652 19.2752 28.5369 19.2779C28.5126 19.2802 28.4883 19.2819 28.4637 19.2832C28.439 19.2842 28.4144 19.2849 28.3891 19.2849C28.3638 19.2849 28.3392 19.2842 28.3145 19.2832C28.1911 19.2776 28.0719 19.2573 27.9571 19.2226C27.9111 19.2087 27.8659 19.1927 27.8213 19.174C27.8069 19.168 27.794 19.1611 27.78 19.1551C27.6625 19.1028 27.5543 19.0396 27.4565 18.9637C27.4551 18.9627 27.4541 18.9617 27.4531 18.9607C27.4535 18.961 27.4541 18.9617 27.4545 18.962C27.4545 18.962 27.4551 18.9627 27.4555 18.963C27.4891 18.9946 27.5244 19.0246 27.5606 19.0529C27.6585 19.1288 27.7667 19.1917 27.8842 19.2443C27.8981 19.2506 27.9111 19.2576 27.9254 19.2632C27.97 19.2819 28.0153 19.2979 28.0612 19.3118C28.1761 19.3465 28.2952 19.3668 28.4187 19.3724C28.4434 19.3734 28.4683 19.3741 28.4933 19.3741C28.5183 19.3741 28.5432 19.3734 28.5678 19.3724C28.5925 19.3714 28.6168 19.3694 28.6411 19.3671C28.6694 19.3644 28.6973 19.3608 28.7253 19.3564C28.7859 19.3471 28.8448 19.3338 28.9027 19.3172C28.9167 19.3132 28.9303 19.3088 28.9443 19.3042C28.9816 19.2919 29.0185 19.2786 29.0548 19.2632C29.1417 19.2263 29.2229 19.183 29.2978 19.1328C29.3727 19.0828 29.4419 19.0263 29.5048 18.9633C29.6207 18.8475 29.7135 18.7107 29.7854 18.5546C29.7917 18.541 29.7991 18.528 29.8051 18.5137C29.8077 18.5077 29.8097 18.5013 29.8124 18.495C29.8254 18.4631 29.8373 18.4305 29.848 18.3975C29.8786 18.302 29.8993 18.2031 29.9092 18.1003C29.9116 18.076 29.9132 18.0517 29.9146 18.027C29.9156 18.0024 29.9162 17.9778 29.9162 17.9525V12.9587C29.9162 12.9078 29.9149 12.8569 29.9139 12.8066Z" fill="white"/>
<path d="M25.6797 10.3555C25.5578 10.256 25.4294 10.1651 25.2942 10.0826C25.204 10.0277 25.1108 9.9764 25.0146 9.92913C24.9667 9.9055 24.9178 9.88287 24.8682 9.8609C24.8389 9.84792 24.8089 9.8366 24.7793 9.82462C24.5087 9.71577 24.2274 9.64554 23.9348 9.61592C23.8267 9.60493 23.7172 9.59961 23.606 9.59961C23.375 9.59961 23.153 9.62091 22.9406 9.66318C22.8874 9.67383 22.8351 9.68582 22.7828 9.69913C22.6271 9.73874 22.4763 9.79067 22.3308 9.85424C22.2822 9.87554 22.2346 9.89751 22.1877 9.92081C22 10.0133 21.8246 10.1209 21.6621 10.244C21.54 10.3362 21.4251 10.4371 21.3173 10.5462C21.084 10.7826 20.8929 11.0555 20.7428 11.3634C20.7178 11.4147 20.6939 11.4672 20.6709 11.5205C20.6619 11.5418 20.6523 11.5624 20.6436 11.5841C20.6296 11.619 20.616 11.6543 20.6033 11.6896C20.5963 11.7089 20.59 11.7285 20.5834 11.7482C20.578 11.7638 20.5724 11.7798 20.5671 11.7954C20.5584 11.8224 20.5501 11.8497 20.5421 11.877C20.5398 11.8853 20.5368 11.8936 20.5344 11.9019C20.5254 11.9336 20.5168 11.9655 20.5088 11.9978C20.5078 12.0018 20.5068 12.0055 20.5058 12.0095C20.4972 12.0447 20.4888 12.08 20.4812 12.1156C20.4812 12.1163 20.4808 12.117 20.4808 12.1176C20.4659 12.1879 20.4532 12.2588 20.4422 12.3303C20.4366 12.3706 20.4306 12.4109 20.4263 12.4518C20.4253 12.4605 20.4239 12.4691 20.4229 12.4778C20.4229 12.4794 20.4229 12.4814 20.4226 12.4831C20.4206 12.5191 20.4173 12.5547 20.4129 12.5896C20.4096 12.6346 20.407 12.6798 20.405 12.7254C20.403 12.771 20.402 12.8166 20.402 12.8629V17.862C20.402 18.062 20.365 18.2491 20.2915 18.4232C20.2179 18.5973 20.1184 18.7474 19.9926 18.8735C19.8667 18.9997 19.7173 19.0999 19.5442 19.1738C19.3708 19.2477 19.189 19.2846 18.9983 19.2846C18.8076 19.2846 18.6086 19.2477 18.4268 19.1738C18.289 19.1178 18.1652 19.0469 18.0547 18.9611C18.0554 18.9617 18.0557 18.9624 18.0564 18.9627C18.1905 19.0889 18.3486 19.1887 18.5307 19.2626C18.7124 19.3365 18.9028 19.3735 19.1022 19.3735C19.3015 19.3735 19.4746 19.3365 19.648 19.2626C19.8211 19.1887 19.9706 19.0889 20.0964 18.9624C20.2219 18.8362 20.3214 18.6861 20.3953 18.5121C20.4689 18.338 20.5058 18.1509 20.5058 17.9509V12.9518C20.5058 12.9055 20.5068 12.8599 20.5088 12.8143C20.5108 12.7687 20.5135 12.7234 20.5168 12.6785C20.5211 12.6432 20.5244 12.6079 20.5264 12.572C20.5264 12.572 20.5264 12.5686 20.5268 12.5667C20.5278 12.558 20.5291 12.5493 20.5301 12.5407C20.5348 12.5001 20.5408 12.4598 20.5461 12.4192C20.5567 12.3476 20.5694 12.2767 20.5847 12.2065C20.5847 12.2058 20.585 12.2052 20.585 12.2045C20.5927 12.1689 20.601 12.1336 20.6097 12.0983C20.6107 12.0943 20.6117 12.0907 20.6127 12.0867C20.6206 12.0547 20.6293 12.0228 20.6383 11.9908C20.6406 11.9825 20.6433 11.9742 20.6459 11.9659C20.6539 11.9386 20.6622 11.9113 20.6709 11.8843C20.6759 11.8683 20.6819 11.8527 20.6872 11.837C20.6939 11.8174 20.7002 11.7978 20.7072 11.7785C20.7202 11.7432 20.7335 11.7079 20.7475 11.6729C20.7561 11.6513 20.7658 11.6307 20.7748 11.6094C20.7974 11.5561 20.8214 11.5035 20.8466 11.4523C20.9968 11.1444 21.1878 10.8718 21.4211 10.6351C21.529 10.5259 21.6438 10.4251 21.766 10.3329C21.9288 10.2101 22.1038 10.1022 22.2916 10.0097C22.3385 9.98672 22.3861 9.96441 22.4347 9.94311C22.5801 9.87954 22.7309 9.82794 22.8867 9.788C22.9386 9.77469 22.9912 9.76271 23.0445 9.75206C23.2568 9.70978 23.4788 9.68848 23.7098 9.68848C23.821 9.68848 23.9305 9.69381 24.0387 9.70479C24.3313 9.73408 24.6125 9.80431 24.8831 9.91349C24.9128 9.92547 24.9427 9.93679 24.972 9.94977C25.0216 9.9714 25.0705 9.99437 25.1185 10.018C25.2147 10.0653 25.3079 10.1165 25.3981 10.1714C25.5332 10.2537 25.6613 10.3445 25.7828 10.4437C25.7489 10.4138 25.715 10.3841 25.6797 10.3555Z" fill="white"/>
</g>
<path d="M71.3477 16.8289V3.45057C71.3477 3.25053 71.3886 3.06347 71.4711 2.88972C71.5534 2.71597 71.6619 2.56619 71.796 2.44004C71.9301 2.31389 72.0883 2.21403 72.2703 2.14014C72.4521 2.06624 72.6425 2.0293 72.8418 2.0293C73.0412 2.0293 73.2143 2.06624 73.3877 2.14014C73.5608 2.21403 73.7102 2.31389 73.8361 2.44037C73.9615 2.56652 74.0611 2.71664 74.135 2.89072C74.2085 3.0648 74.2455 3.25186 74.2455 3.45191V16.8289H71.3477Z" fill="white"/>
<path d="M74.1333 2.89072C74.0598 2.71664 73.9602 2.56652 73.8344 2.44037C73.7086 2.31422 73.5592 2.21403 73.3861 2.14014C73.2127 2.06624 73.0309 2.0293 72.8402 2.0293C72.8099 2.0293 72.78 2.0303 72.75 2.03229C72.9404 2.03229 73.1221 2.06924 73.2952 2.14313C73.4683 2.21702 73.6177 2.31688 73.7436 2.44336C73.869 2.56952 73.9686 2.71963 74.0425 2.89371C74.116 3.06779 74.153 3.25486 74.153 3.4549V16.8289H74.2435V3.45191C74.2435 3.25186 74.2069 3.0648 74.1333 2.89072Z" fill="white"/>
<path opacity="0.4" d="M74.1333 2.89072C74.0598 2.71664 73.9602 2.56652 73.8344 2.44037C73.7086 2.31422 73.5592 2.21403 73.3861 2.14014C73.2127 2.06624 73.0309 2.0293 72.8402 2.0293C72.8099 2.0293 72.78 2.0303 72.75 2.03229C72.9404 2.03229 73.1221 2.06924 73.2952 2.14313C73.4683 2.21702 73.6177 2.31688 73.7436 2.44336C73.869 2.56952 73.9686 2.71963 74.0425 2.89371C74.116 3.06779 74.153 3.25486 74.153 3.4549V16.8289H74.2435V3.45191C74.2435 3.25186 74.2069 3.0648 74.1333 2.89072Z" fill="white"/>
<path d="M74.1912 7.63254C72.5499 8.66737 71.4375 10.4641 71.351 12.5265C71.3497 12.5111 71.3487 12.4958 71.3477 12.4805C71.3497 12.5198 71.353 12.5591 71.358 12.5974C71.3543 12.6869 71.3523 12.7768 71.3523 12.8673V17.8611C71.3523 18.0611 71.3933 18.2482 71.4758 18.4219C71.558 18.5957 71.6665 18.7455 71.8007 18.8716C71.9348 18.9978 72.0929 19.0976 72.275 19.1715C72.4567 19.2454 72.6471 19.2823 72.8465 19.2823C73.0459 19.2823 73.219 19.2454 73.3924 19.1715C73.5655 19.0976 73.7149 18.9978 73.8407 18.8713C73.9662 18.7451 74.0657 18.595 74.1396 18.4209C74.2132 18.2468 74.2501 18.0598 74.2501 17.8597V12.8606C74.2501 12.7684 74.2545 12.6776 74.2611 12.5874C74.2658 12.5504 74.2694 12.5131 74.2711 12.4752C74.304 12.1643 74.3773 11.8661 74.4921 11.5815C74.6532 11.1814 74.8779 10.8356 75.1658 10.544C75.4534 10.2524 75.7912 10.0221 76.1793 9.85199C76.5671 9.68224 76.9922 9.59736 77.4545 9.59736C77.9168 9.59736 78.3199 9.68457 78.7167 9.85832C79.1134 10.0324 79.4619 10.2674 79.7628 10.563C80.0637 10.8589 80.3034 11.2047 80.4821 11.6005C80.6609 11.9966 80.7544 12.4209 80.7634 12.873V17.8591C80.7634 18.0591 80.8027 18.2462 80.8809 18.4203C80.9591 18.5943 81.0656 18.7445 81.2004 18.8706C81.3352 18.9968 81.492 19.097 81.6704 19.1708C81.8485 19.2447 82.0379 19.2817 82.2382 19.2817C82.4386 19.2817 82.6253 19.2447 82.7994 19.1708C82.9735 19.097 83.1236 18.9971 83.2498 18.8709C83.3759 18.7448 83.4758 18.595 83.55 18.4213C83.6239 18.2475 83.6609 18.0605 83.6609 17.8604V12.8666C83.6609 12.0149 83.4977 11.215 83.1712 10.4674C82.845 9.71985 82.401 9.0658 81.8398 8.50527C81.2786 7.94442 80.6216 7.50339 79.869 7.18185C79.1164 6.86032 78.3136 6.69922 77.4612 6.69922C76.6087 6.69922 75.8119 6.85999 75.0726 7.18185C74.7644 7.31566 74.4728 7.47077 74.1972 7.64618" fill="white"/>
<path d="M74.2483 12.8625C74.2483 12.7703 74.2526 12.6795 74.2592 12.5893C74.2636 12.554 74.2669 12.5184 74.2689 12.4824C74.2489 12.6711 74.2383 12.8625 74.2383 13.0566C74.2383 13.1188 74.2419 13.1821 74.2483 13.2463V12.8625Z" fill="white"/>
<path d="M81.8392 8.50805C81.6321 8.30135 81.4121 8.11096 81.1791 7.93688C80.6792 7.78243 80.1476 7.69922 79.5971 7.69922C76.8427 7.69922 74.5743 9.77755 74.2734 12.4517C74.3077 12.1501 74.3796 11.8605 74.4911 11.5839C74.6522 11.1838 74.8769 10.838 75.1648 10.5464C75.4524 10.2549 75.7902 10.0245 76.1783 9.85443C76.5661 9.68468 76.9912 9.5998 77.4535 9.5998C77.9158 9.5998 78.3189 9.68701 78.7157 9.86076C79.1124 10.0348 79.4609 10.2698 79.7618 10.5654C80.0627 10.8613 80.3024 11.2071 80.4811 11.6029C80.6599 11.999 80.7534 12.4234 80.7624 12.8754V17.8615C80.7624 18.0616 80.8017 18.2486 80.8799 18.4227C80.9581 18.5968 81.0646 18.7469 81.1994 18.8731C81.3342 18.9992 81.491 19.0994 81.6694 19.1733C81.8475 19.2472 82.0369 19.2841 82.2373 19.2841C82.4376 19.2841 82.6244 19.2472 82.7984 19.1733C82.9725 19.0994 83.1226 18.9995 83.2488 18.8734C83.3749 18.7472 83.4748 18.5975 83.549 18.4237C83.6229 18.25 83.6599 18.0629 83.6599 17.8628V12.8691C83.6599 12.0173 83.4968 11.2175 83.1702 10.4699C82.844 9.72229 82.4004 9.06857 81.8392 8.50805Z" fill="white"/>
<path d="M74.2483 12.8625C74.2483 12.7703 74.2526 12.6795 74.2592 12.5893C74.2636 12.554 74.2669 12.5184 74.2689 12.4824C74.2489 12.6711 74.2383 12.8625 74.2383 13.0566C74.2383 13.1188 74.2419 13.1821 74.2483 13.2463V12.8625Z" fill="white"/>
<path d="M77.4535 9.59878C77.8982 9.59878 78.3189 9.68599 78.7157 9.85973C79.1124 10.0338 79.4609 10.2688 79.7618 10.5644C80.0627 10.8603 80.3024 11.2061 80.4811 11.6019C80.6599 11.998 80.7534 12.4224 80.7624 12.8744V17.8605C80.7624 18.0605 80.8017 18.2476 80.8799 18.4217C80.9581 18.5958 81.0646 18.7459 81.1994 18.872C81.3342 18.9982 81.491 19.0984 81.6694 19.1723C81.8475 19.2462 82.0369 19.2831 82.2373 19.2831C82.4376 19.2831 82.6244 19.2462 82.7984 19.1723C82.9725 19.0984 83.1226 18.9985 83.2488 18.8724C83.3749 18.7462 83.4748 18.5964 83.549 18.4227C83.6229 18.2489 83.6599 18.0619 83.6599 17.8618V12.868C83.6599 12.4773 83.6252 12.0975 83.5563 11.7287C82.7632 9.98855 81.0084 8.77896 78.9713 8.7793C76.9712 8.7793 75.2434 9.94528 74.4305 11.6345C74.358 11.8988 74.3047 12.1714 74.2734 12.4503C74.3077 12.1488 74.3796 11.8592 74.4911 11.5826C74.6522 11.1825 74.8769 10.8367 75.1648 10.5451C75.4524 10.2535 75.7902 10.0232 76.1783 9.85308C76.5661 9.68332 76.9912 9.59878 77.4535 9.59878Z" fill="white"/>
<path d="M83.7108 12.8066C83.7101 12.7849 83.7094 12.7633 83.7084 12.7417C83.7074 12.7137 83.7068 12.6858 83.7054 12.6578C83.7041 12.6292 83.7025 12.6006 83.7005 12.5723C83.6991 12.552 83.6981 12.532 83.6968 12.5117C83.6945 12.4787 83.6918 12.4458 83.6888 12.4128C83.6875 12.3978 83.6865 12.3832 83.6848 12.3682C83.6835 12.3556 83.6828 12.3426 83.6815 12.3299C83.6792 12.3063 83.6762 12.2827 83.6735 12.259C83.6722 12.2484 83.6712 12.2377 83.6698 12.2271C83.6678 12.2101 83.6662 12.1928 83.6642 12.1758C83.6615 12.1535 83.6582 12.1316 83.6552 12.1093C83.6542 12.1023 83.6532 12.0956 83.6525 12.0886C83.6465 12.0467 83.6405 12.0047 83.6336 11.9628C83.6329 11.9595 83.6326 11.9561 83.6319 11.9528C83.6192 11.8749 83.6056 11.7974 83.5899 11.7205C83.5696 11.6206 83.5467 11.5214 83.521 11.4229C83.4954 11.3247 83.4675 11.2272 83.4368 11.1303C83.4062 11.0335 83.3733 10.9376 83.3373 10.8428C83.3017 10.7476 83.2634 10.6534 83.2225 10.5598C83.1612 10.4197 83.096 10.2829 83.0264 10.1491C83.0031 10.1045 82.9798 10.0606 82.9555 10.0166C82.7824 9.70174 82.5854 9.4055 82.3647 9.12824C82.3141 9.06433 82.2619 9.00176 82.2086 8.93985C82.2003 8.92986 82.1916 8.92021 82.183 8.91055C82.0895 8.80338 81.9919 8.69886 81.8904 8.59767C81.8441 8.55141 81.7969 8.50614 81.7493 8.46154C81.738 8.45089 81.7263 8.44023 81.7147 8.42958C81.6671 8.38565 81.6191 8.34238 81.5705 8.3001C81.5479 8.28046 81.5243 8.26149 81.5013 8.24219C81.5383 8.27481 81.5749 8.30743 81.6111 8.34071C81.6228 8.35136 81.6341 8.36201 81.6458 8.37267C81.6934 8.41727 81.7406 8.46254 81.7869 8.5088C81.8881 8.60999 81.9856 8.7145 82.0795 8.82168C82.0881 8.83134 82.0964 8.84132 82.1051 8.85097C82.1584 8.91288 82.2103 8.97546 82.2612 9.03937C82.4819 9.31663 82.6789 9.61254 82.852 9.92775C82.876 9.97169 82.8996 10.0156 82.9229 10.0602C82.9925 10.1937 83.0577 10.3308 83.119 10.471C83.1599 10.5645 83.1979 10.6587 83.2338 10.7539C83.2694 10.8491 83.3027 10.9449 83.3333 11.0415C83.3639 11.1383 83.3919 11.2359 83.4175 11.334C83.4432 11.4322 83.4661 11.5314 83.4864 11.6316C83.5021 11.7085 83.5157 11.7861 83.5284 11.8639C83.529 11.8673 83.5294 11.8706 83.53 11.8739C83.5367 11.9159 83.543 11.9578 83.549 11.9998C83.55 12.0067 83.551 12.0134 83.5517 12.0204C83.5547 12.0427 83.558 12.0647 83.5607 12.087C83.5627 12.1039 83.5643 12.1212 83.5663 12.1382C83.5677 12.1489 83.5686 12.1595 83.57 12.1702C83.5726 12.1938 83.5756 12.2174 83.578 12.2411C83.5793 12.2537 83.58 12.2667 83.5813 12.2793C83.5826 12.2943 83.584 12.309 83.5853 12.3239C83.588 12.3569 83.591 12.3899 83.5933 12.4228C83.5946 12.4428 83.5956 12.4631 83.5969 12.4834C83.5986 12.512 83.6006 12.5403 83.6019 12.5689C83.6033 12.5969 83.6039 12.6248 83.6049 12.6528C83.6056 12.6744 83.6066 12.6961 83.6073 12.7177C83.6086 12.7683 83.6089 12.8189 83.6089 12.8695V17.8633C83.6089 17.8882 83.6083 17.9132 83.6073 17.9378C83.6063 17.9625 83.6043 17.9868 83.6019 18.0111C83.592 18.1139 83.5713 18.2128 83.5407 18.3083C83.53 18.3412 83.5184 18.3735 83.5051 18.4058C83.5024 18.4121 83.5004 18.4181 83.4977 18.4245C83.4918 18.4384 83.4844 18.4514 83.4781 18.4654C83.4062 18.6215 83.3133 18.7583 83.1975 18.8741C83.1343 18.937 83.0654 18.9936 82.9905 19.0436C82.9156 19.0935 82.8344 19.1371 82.7475 19.174C82.7112 19.1894 82.6743 19.2027 82.637 19.215C82.6233 19.2193 82.6094 19.2236 82.5954 19.228C82.5375 19.2449 82.4782 19.2579 82.418 19.2672C82.3904 19.2716 82.3621 19.2752 82.3338 19.2779C82.3095 19.2802 82.2852 19.2819 82.2605 19.2832C82.2359 19.2842 82.2113 19.2849 82.186 19.2849C82.1607 19.2849 82.1361 19.2842 82.1114 19.2832C81.9879 19.2776 81.8688 19.2573 81.7539 19.2226C81.708 19.2087 81.6627 19.1927 81.6181 19.174C81.6038 19.168 81.5908 19.1611 81.5769 19.1551C81.4594 19.1028 81.3512 19.0396 81.2533 18.9637C81.252 18.9627 81.251 18.9617 81.25 18.9607C81.2503 18.961 81.251 18.9617 81.2513 18.962C81.2513 18.962 81.252 18.9627 81.2523 18.963C81.286 18.9946 81.3212 19.0246 81.3575 19.0529C81.4554 19.1288 81.5635 19.1917 81.681 19.2443C81.695 19.2506 81.708 19.2576 81.7223 19.2632C81.7669 19.2819 81.8122 19.2979 81.8581 19.3118C81.973 19.3465 82.0921 19.3668 82.2156 19.3724C82.2402 19.3734 82.2652 19.3741 82.2902 19.3741C82.3151 19.3741 82.3401 19.3734 82.3647 19.3724C82.3894 19.3714 82.4136 19.3694 82.4379 19.3671C82.4662 19.3644 82.4942 19.3608 82.5222 19.3564C82.5827 19.3471 82.6417 19.3338 82.6996 19.3172C82.7136 19.3132 82.7272 19.3088 82.7412 19.3042C82.7785 19.2919 82.8154 19.2786 82.8517 19.2632C82.9386 19.2263 83.0198 19.183 83.0947 19.1328C83.1696 19.0828 83.2388 19.0263 83.3017 18.9633C83.4175 18.8475 83.5104 18.7107 83.5823 18.5546C83.5886 18.541 83.5959 18.528 83.6019 18.5137C83.6046 18.5077 83.6066 18.5013 83.6093 18.495C83.6222 18.4631 83.6342 18.4305 83.6449 18.3975C83.6755 18.302 83.6961 18.2031 83.7061 18.1003C83.7084 18.076 83.7101 18.0517 83.7114 18.027C83.7124 18.0024 83.7131 17.9778 83.7131 17.9525V12.9587C83.7131 12.9078 83.7118 12.8569 83.7108 12.8066Z" fill="white"/>
<path d="M79.4765 10.3555C79.3547 10.256 79.2262 10.1651 79.0911 10.0826C79.0009 10.0277 78.9077 9.9764 78.8115 9.92913C78.7636 9.9055 78.7146 9.88287 78.665 9.8609C78.6357 9.84792 78.6058 9.8366 78.5762 9.82462C78.3056 9.71577 78.0243 9.64554 77.7317 9.61592C77.6235 9.60493 77.514 9.59961 77.4029 9.59961C77.1719 9.59961 76.9499 9.62091 76.7375 9.66318C76.6842 9.67383 76.632 9.68582 76.5797 9.69913C76.4239 9.73874 76.2732 9.79067 76.1277 9.85424C76.0791 9.87554 76.0315 9.89751 75.9846 9.92081C75.7969 10.0133 75.6214 10.1209 75.459 10.244C75.3369 10.3362 75.222 10.4371 75.1142 10.5462C74.8808 10.7826 74.6898 11.0555 74.5397 11.3634C74.5147 11.4147 74.4907 11.4672 74.4678 11.5205C74.4588 11.5418 74.4491 11.5624 74.4405 11.5841C74.4265 11.619 74.4129 11.6543 74.4002 11.6896C74.3932 11.7089 74.3869 11.7285 74.3802 11.7482C74.3749 11.7638 74.3693 11.7798 74.3639 11.7954C74.3553 11.8224 74.347 11.8497 74.339 11.877C74.3366 11.8853 74.3336 11.8936 74.3313 11.9019C74.3223 11.9336 74.3137 11.9655 74.3057 11.9978C74.3047 12.0018 74.3037 12.0055 74.3027 12.0095C74.294 12.0447 74.2857 12.08 74.278 12.1156C74.278 12.1163 74.2777 12.117 74.2777 12.1176C74.2627 12.1879 74.2501 12.2588 74.2391 12.3303C74.2334 12.3706 74.2275 12.4109 74.2231 12.4518C74.2221 12.4605 74.2208 12.4691 74.2198 12.4778C74.2198 12.4794 74.2198 12.4814 74.2195 12.4831C74.2175 12.5191 74.2141 12.5547 74.2098 12.5896C74.2065 12.6346 74.2038 12.6798 74.2018 12.7254C74.1998 12.771 74.1988 12.8166 74.1988 12.8629V17.862C74.1988 18.062 74.1619 18.2491 74.0883 18.4232C74.0148 18.5973 73.9152 18.7474 73.7894 18.8735C73.6636 18.9997 73.5142 19.0999 73.3411 19.1738C73.1677 19.2477 72.9859 19.2846 72.7952 19.2846C72.6045 19.2846 72.4054 19.2477 72.2237 19.1738C72.0859 19.1178 71.9621 19.0469 71.8516 18.9611C71.8522 18.9617 71.8526 18.9624 71.8532 18.9627C71.9874 19.0889 72.1455 19.1887 72.3275 19.2626C72.5093 19.3365 72.6997 19.3735 72.899 19.3735C73.0984 19.3735 73.2715 19.3365 73.4449 19.2626C73.618 19.1887 73.7675 19.0889 73.8933 18.9624C74.0188 18.8362 74.1183 18.6861 74.1922 18.5121C74.2657 18.338 74.3027 18.1509 74.3027 17.9509V12.9518C74.3027 12.9055 74.3037 12.8599 74.3057 12.8143C74.3077 12.7687 74.3103 12.7234 74.3137 12.6785C74.318 12.6432 74.3213 12.6079 74.3233 12.572C74.3233 12.572 74.3233 12.5686 74.3237 12.5667C74.3247 12.558 74.326 12.5493 74.327 12.5407C74.3316 12.5001 74.3376 12.4598 74.343 12.4192C74.3536 12.3476 74.3663 12.2767 74.3816 12.2065C74.3816 12.2058 74.3819 12.2052 74.3819 12.2045C74.3896 12.1689 74.3979 12.1336 74.4065 12.0983C74.4075 12.0943 74.4085 12.0907 74.4095 12.0867C74.4175 12.0547 74.4262 12.0228 74.4352 11.9908C74.4375 11.9825 74.4401 11.9742 74.4428 11.9659C74.4508 11.9386 74.4591 11.9113 74.4678 11.8843C74.4728 11.8683 74.4788 11.8527 74.4841 11.837C74.4907 11.8174 74.4971 11.7978 74.5041 11.7785C74.517 11.7432 74.5304 11.7079 74.5443 11.6729C74.553 11.6513 74.5626 11.6307 74.5716 11.6094C74.5943 11.5561 74.6182 11.5035 74.6435 11.4523C74.7936 11.1444 74.9847 10.8718 75.218 10.6351C75.3259 10.5259 75.4407 10.4251 75.5629 10.3329C75.7256 10.2101 75.9007 10.1022 76.0884 10.0097C76.1354 9.98672 76.183 9.96441 76.2316 9.94311C76.377 9.87954 76.5278 9.82794 76.6836 9.788C76.7355 9.77469 76.7881 9.76271 76.8413 9.75206C77.0537 9.70978 77.2757 9.68848 77.5067 9.68848C77.6179 9.68848 77.7274 9.69381 77.8356 9.70479C78.1282 9.73408 78.4094 9.80431 78.68 9.91349C78.7096 9.92547 78.7396 9.93679 78.7689 9.94977C78.8185 9.9714 78.8674 9.99437 78.9153 10.018C79.0115 10.0653 79.1047 10.1165 79.1949 10.1714C79.3301 10.2537 79.4582 10.3445 79.5797 10.4437C79.5458 10.4138 79.5118 10.3841 79.4765 10.3555Z" fill="white"/>
<g opacity="0.4">
<path d="M83.7108 12.8066C83.7101 12.7849 83.7094 12.7633 83.7084 12.7417C83.7074 12.7137 83.7068 12.6858 83.7054 12.6578C83.7041 12.6292 83.7025 12.6006 83.7005 12.5723C83.6991 12.552 83.6981 12.532 83.6968 12.5117C83.6945 12.4787 83.6918 12.4458 83.6888 12.4128C83.6875 12.3978 83.6865 12.3832 83.6848 12.3682C83.6835 12.3556 83.6828 12.3426 83.6815 12.3299C83.6792 12.3063 83.6762 12.2827 83.6735 12.259C83.6722 12.2484 83.6712 12.2377 83.6698 12.2271C83.6678 12.2101 83.6662 12.1928 83.6642 12.1758C83.6615 12.1535 83.6582 12.1316 83.6552 12.1093C83.6542 12.1023 83.6532 12.0956 83.6525 12.0886C83.6465 12.0467 83.6405 12.0047 83.6336 11.9628C83.6329 11.9595 83.6326 11.9561 83.6319 11.9528C83.6192 11.8749 83.6056 11.7974 83.5899 11.7205C83.5696 11.6206 83.5467 11.5214 83.521 11.4229C83.4954 11.3247 83.4675 11.2272 83.4368 11.1303C83.4062 11.0335 83.3733 10.9376 83.3373 10.8428C83.3017 10.7476 83.2634 10.6534 83.2225 10.5598C83.1612 10.4197 83.096 10.2829 83.0264 10.1491C83.0031 10.1045 82.9798 10.0606 82.9555 10.0166C82.7824 9.70174 82.5854 9.4055 82.3647 9.12824C82.3141 9.06433 82.2619 9.00176 82.2086 8.93985C82.2003 8.92986 82.1916 8.92021 82.183 8.91055C82.0895 8.80338 81.9919 8.69886 81.8904 8.59767C81.8441 8.55141 81.7969 8.50614 81.7493 8.46154C81.738 8.45089 81.7263 8.44023 81.7147 8.42958C81.6671 8.38565 81.6191 8.34238 81.5705 8.3001C81.5479 8.28046 81.5243 8.26149 81.5013 8.24219C81.5383 8.27481 81.5749 8.30743 81.6111 8.34071C81.6228 8.35136 81.6341 8.36201 81.6458 8.37267C81.6934 8.41727 81.7406 8.46254 81.7869 8.5088C81.8881 8.60999 81.9856 8.7145 82.0795 8.82168C82.0881 8.83134 82.0964 8.84132 82.1051 8.85097C82.1584 8.91288 82.2103 8.97546 82.2612 9.03937C82.4819 9.31663 82.6789 9.61254 82.852 9.92775C82.876 9.97169 82.8996 10.0156 82.9229 10.0602C82.9925 10.1937 83.0577 10.3308 83.119 10.471C83.1599 10.5645 83.1979 10.6587 83.2338 10.7539C83.2694 10.8491 83.3027 10.9449 83.3333 11.0415C83.3639 11.1383 83.3919 11.2359 83.4175 11.334C83.4432 11.4322 83.4661 11.5314 83.4864 11.6316C83.5021 11.7085 83.5157 11.7861 83.5284 11.8639C83.529 11.8673 83.5294 11.8706 83.53 11.8739C83.5367 11.9159 83.543 11.9578 83.549 11.9998C83.55 12.0067 83.551 12.0134 83.5517 12.0204C83.5547 12.0427 83.558 12.0647 83.5607 12.087C83.5627 12.1039 83.5643 12.1212 83.5663 12.1382C83.5677 12.1489 83.5686 12.1595 83.57 12.1702C83.5726 12.1938 83.5756 12.2174 83.578 12.2411C83.5793 12.2537 83.58 12.2667 83.5813 12.2793C83.5826 12.2943 83.584 12.309 83.5853 12.3239C83.588 12.3569 83.591 12.3899 83.5933 12.4228C83.5946 12.4428 83.5956 12.4631 83.5969 12.4834C83.5986 12.512 83.6006 12.5403 83.6019 12.5689C83.6033 12.5969 83.6039 12.6248 83.6049 12.6528C83.6056 12.6744 83.6066 12.6961 83.6073 12.7177C83.6086 12.7683 83.6089 12.8189 83.6089 12.8695V17.8633C83.6089 17.8882 83.6083 17.9132 83.6073 17.9378C83.6063 17.9625 83.6043 17.9868 83.6019 18.0111C83.592 18.1139 83.5713 18.2128 83.5407 18.3083C83.53 18.3412 83.5184 18.3735 83.5051 18.4058C83.5024 18.4121 83.5004 18.4181 83.4977 18.4245C83.4918 18.4384 83.4844 18.4514 83.4781 18.4654C83.4062 18.6215 83.3133 18.7583 83.1975 18.8741C83.1343 18.937 83.0654 18.9936 82.9905 19.0436C82.9156 19.0935 82.8344 19.1371 82.7475 19.174C82.7112 19.1894 82.6743 19.2027 82.637 19.215C82.6233 19.2193 82.6094 19.2236 82.5954 19.228C82.5375 19.2449 82.4782 19.2579 82.418 19.2672C82.3904 19.2716 82.3621 19.2752 82.3338 19.2779C82.3095 19.2802 82.2852 19.2819 82.2605 19.2832C82.2359 19.2842 82.2113 19.2849 82.186 19.2849C82.1607 19.2849 82.1361 19.2842 82.1114 19.2832C81.9879 19.2776 81.8688 19.2573 81.7539 19.2226C81.708 19.2087 81.6627 19.1927 81.6181 19.174C81.6038 19.168 81.5908 19.1611 81.5769 19.1551C81.4594 19.1028 81.3512 19.0396 81.2533 18.9637C81.252 18.9627 81.251 18.9617 81.25 18.9607C81.2503 18.961 81.251 18.9617 81.2513 18.962C81.2513 18.962 81.252 18.9627 81.2523 18.963C81.286 18.9946 81.3212 19.0246 81.3575 19.0529C81.4554 19.1288 81.5635 19.1917 81.681 19.2443C81.695 19.2506 81.708 19.2576 81.7223 19.2632C81.7669 19.2819 81.8122 19.2979 81.8581 19.3118C81.973 19.3465 82.0921 19.3668 82.2156 19.3724C82.2402 19.3734 82.2652 19.3741 82.2902 19.3741C82.3151 19.3741 82.3401 19.3734 82.3647 19.3724C82.3894 19.3714 82.4136 19.3694 82.4379 19.3671C82.4662 19.3644 82.4942 19.3608 82.5222 19.3564C82.5827 19.3471 82.6417 19.3338 82.6996 19.3172C82.7136 19.3132 82.7272 19.3088 82.7412 19.3042C82.7785 19.2919 82.8154 19.2786 82.8517 19.2632C82.9386 19.2263 83.0198 19.183 83.0947 19.1328C83.1696 19.0828 83.2388 19.0263 83.3017 18.9633C83.4175 18.8475 83.5104 18.7107 83.5823 18.5546C83.5886 18.541 83.5959 18.528 83.6019 18.5137C83.6046 18.5077 83.6066 18.5013 83.6093 18.495C83.6222 18.4631 83.6342 18.4305 83.6449 18.3975C83.6755 18.302 83.6961 18.2031 83.7061 18.1003C83.7084 18.076 83.7101 18.0517 83.7114 18.027C83.7124 18.0024 83.7131 17.9778 83.7131 17.9525V12.9587C83.7131 12.9078 83.7118 12.8569 83.7108 12.8066Z" fill="white"/>
<path d="M79.4765 10.3555C79.3547 10.256 79.2262 10.1651 79.0911 10.0826C79.0009 10.0277 78.9077 9.9764 78.8115 9.92913C78.7636 9.9055 78.7146 9.88287 78.665 9.8609C78.6357 9.84792 78.6058 9.8366 78.5762 9.82462C78.3056 9.71577 78.0243 9.64554 77.7317 9.61592C77.6235 9.60493 77.514 9.59961 77.4029 9.59961C77.1719 9.59961 76.9499 9.62091 76.7375 9.66318C76.6842 9.67383 76.632 9.68582 76.5797 9.69913C76.4239 9.73874 76.2732 9.79067 76.1277 9.85424C76.0791 9.87554 76.0315 9.89751 75.9846 9.92081C75.7969 10.0133 75.6214 10.1209 75.459 10.244C75.3369 10.3362 75.222 10.4371 75.1142 10.5462C74.8808 10.7826 74.6898 11.0555 74.5397 11.3634C74.5147 11.4147 74.4907 11.4672 74.4678 11.5205C74.4588 11.5418 74.4491 11.5624 74.4405 11.5841C74.4265 11.619 74.4129 11.6543 74.4002 11.6896C74.3932 11.7089 74.3869 11.7285 74.3802 11.7482C74.3749 11.7638 74.3693 11.7798 74.3639 11.7954C74.3553 11.8224 74.347 11.8497 74.339 11.877C74.3366 11.8853 74.3336 11.8936 74.3313 11.9019C74.3223 11.9336 74.3137 11.9655 74.3057 11.9978C74.3047 12.0018 74.3037 12.0055 74.3027 12.0095C74.294 12.0447 74.2857 12.08 74.278 12.1156C74.278 12.1163 74.2777 12.117 74.2777 12.1176C74.2627 12.1879 74.2501 12.2588 74.2391 12.3303C74.2334 12.3706 74.2275 12.4109 74.2231 12.4518C74.2221 12.4605 74.2208 12.4691 74.2198 12.4778C74.2198 12.4794 74.2198 12.4814 74.2195 12.4831C74.2175 12.5191 74.2141 12.5547 74.2098 12.5896C74.2065 12.6346 74.2038 12.6798 74.2018 12.7254C74.1998 12.771 74.1988 12.8166 74.1988 12.8629V17.862C74.1988 18.062 74.1619 18.2491 74.0883 18.4232C74.0148 18.5973 73.9152 18.7474 73.7894 18.8735C73.6636 18.9997 73.5142 19.0999 73.3411 19.1738C73.1677 19.2477 72.9859 19.2846 72.7952 19.2846C72.6045 19.2846 72.4054 19.2477 72.2237 19.1738C72.0859 19.1178 71.9621 19.0469 71.8516 18.9611C71.8522 18.9617 71.8526 18.9624 71.8532 18.9627C71.9874 19.0889 72.1455 19.1887 72.3275 19.2626C72.5093 19.3365 72.6997 19.3735 72.899 19.3735C73.0984 19.3735 73.2715 19.3365 73.4449 19.2626C73.618 19.1887 73.7675 19.0889 73.8933 18.9624C74.0188 18.8362 74.1183 18.6861 74.1922 18.5121C74.2657 18.338 74.3027 18.1509 74.3027 17.9509V12.9518C74.3027 12.9055 74.3037 12.8599 74.3057 12.8143C74.3077 12.7687 74.3103 12.7234 74.3137 12.6785C74.318 12.6432 74.3213 12.6079 74.3233 12.572C74.3233 12.572 74.3233 12.5686 74.3237 12.5667C74.3247 12.558 74.326 12.5493 74.327 12.5407C74.3316 12.5001 74.3376 12.4598 74.343 12.4192C74.3536 12.3476 74.3663 12.2767 74.3816 12.2065C74.3816 12.2058 74.3819 12.2052 74.3819 12.2045C74.3896 12.1689 74.3979 12.1336 74.4065 12.0983C74.4075 12.0943 74.4085 12.0907 74.4095 12.0867C74.4175 12.0547 74.4262 12.0228 74.4352 11.9908C74.4375 11.9825 74.4401 11.9742 74.4428 11.9659C74.4508 11.9386 74.4591 11.9113 74.4678 11.8843C74.4728 11.8683 74.4788 11.8527 74.4841 11.837C74.4907 11.8174 74.4971 11.7978 74.5041 11.7785C74.517 11.7432 74.5304 11.7079 74.5443 11.6729C74.553 11.6513 74.5626 11.6307 74.5716 11.6094C74.5943 11.5561 74.6182 11.5035 74.6435 11.4523C74.7936 11.1444 74.9847 10.8718 75.218 10.6351C75.3259 10.5259 75.4407 10.4251 75.5629 10.3329C75.7256 10.2101 75.9007 10.1022 76.0884 10.0097C76.1354 9.98672 76.183 9.96441 76.2316 9.94311C76.377 9.87954 76.5278 9.82794 76.6836 9.788C76.7355 9.77469 76.7881 9.76271 76.8413 9.75206C77.0537 9.70978 77.2757 9.68848 77.5067 9.68848C77.6179 9.68848 77.7274 9.69381 77.8356 9.70479C78.1282 9.73408 78.4094 9.80431 78.68 9.91349C78.7096 9.92547 78.7396 9.93679 78.7689 9.94977C78.8185 9.9714 78.8674 9.99437 78.9153 10.018C79.0115 10.0653 79.1047 10.1165 79.1949 10.1714C79.3301 10.2537 79.4582 10.3445 79.5797 10.4437C79.5458 10.4138 79.5118 10.3841 79.4765 10.3555Z" fill="white"/>
</g>
<path d="M35.4637 3.35894C35.4581 3.1762 35.4211 3.00445 35.3529 2.84335C35.2783 2.66794 35.1752 2.51649 35.0437 2.38934C34.9122 2.26219 34.7561 2.16134 34.5764 2.08645C34.3963 2.01189 34.2056 1.97461 34.0039 1.97461C33.8021 1.97461 33.6134 2.01189 33.438 2.08645C33.2623 2.16101 33.1088 2.26219 32.9773 2.38934C32.8459 2.51649 32.7404 2.66794 32.6615 2.84335C32.5826 3.0191 32.543 3.20749 32.543 3.4092V17.9272C32.543 18.1292 32.5826 18.3176 32.6615 18.493C32.7404 18.6688 32.8459 18.8199 32.9773 18.9471C33.1088 19.0742 33.2623 19.1754 33.438 19.2496C33.6134 19.3242 33.8021 19.3615 34.0039 19.3615C34.2056 19.3615 34.3963 19.3242 34.5764 19.2496C34.7561 19.1751 34.9119 19.0742 35.0437 18.9471C35.1755 18.8199 35.2783 18.6685 35.3529 18.493C35.4211 18.3323 35.4578 18.1605 35.4637 17.9778V3.35894Z" fill="white"/>
<path d="M57.6487 10.6251C57.3152 9.84422 56.8592 9.16221 56.28 8.57839C55.7008 7.9949 55.0228 7.53423 54.2463 7.19639C53.4697 6.85854 52.6383 6.68945 51.7522 6.68945C50.8662 6.68945 50.0477 6.85854 49.2711 7.19639C48.4946 7.53423 47.8169 7.9949 47.2377 8.57839C46.6586 9.16221 46.1999 9.84422 45.8624 10.6251C45.5246 11.4063 45.3555 12.2398 45.3555 13.1261C45.3555 14.0125 45.5242 14.8437 45.8624 15.6202C46.1753 16.3402 46.5927 16.9752 47.1133 17.5254C46.7248 16.7805 46.5048 15.9337 46.5048 15.0354C46.5048 12.1149 48.8261 9.73704 51.7243 9.64551V9.65117C51.7316 9.65117 51.7386 9.65117 51.7456 9.65117C52.2292 9.65117 52.6839 9.74137 53.1102 9.92111C53.5366 10.1012 53.9058 10.3492 54.218 10.6647C54.5302 10.9806 54.7765 11.349 54.9566 11.7704C55.1203 12.1535 55.2095 12.562 55.2245 12.9957L55.2259 12.9967V13.0616C55.2265 13.0829 55.2272 13.1042 55.2272 13.1258C55.2272 13.1315 55.2272 13.1368 55.2272 13.1425L55.2638 18.4797C55.2691 18.4764 55.2748 18.4731 55.2801 18.4694C55.3677 18.7766 55.5324 19.0266 55.7737 19.2197C56.015 19.4124 56.3113 19.5092 56.6621 19.5092C56.8728 19.5092 57.0679 19.47 57.2476 19.3907C57.4273 19.3119 57.5834 19.2043 57.7149 19.0682C57.8464 18.9324 57.9519 18.7743 58.0308 18.5946C58.1097 18.4148 58.1493 18.2194 58.1493 18.0087V13.1255C58.1493 12.2391 57.9822 11.4063 57.6487 10.6251Z" fill="white"/>
<path d="M54.9399 11.7335C53.978 9.45578 51.7233 7.85742 49.0954 7.85742C48.7036 7.85742 48.3202 7.89304 47.9481 7.96127C47.6967 8.149 47.4598 8.3547 47.2377 8.57838C46.6586 9.1622 46.1999 9.84422 45.8624 10.6251C45.5246 11.4063 45.3555 12.2397 45.3555 13.1261C45.3555 14.0125 45.5242 14.8437 45.8624 15.6202C46.1753 16.3402 46.5927 16.9752 47.1133 17.5254C46.7248 16.7805 46.5048 15.9337 46.5048 15.0354C46.5048 12.1149 48.8261 9.73704 51.7243 9.6455V9.65116C51.7316 9.65116 51.7386 9.65116 51.7456 9.65116C52.2292 9.65116 52.6839 9.74136 53.1102 9.9211C53.5366 10.1012 53.9058 10.3492 54.218 10.6647C54.5209 10.9713 54.7612 11.3277 54.9399 11.7335Z" fill="white"/>
<path d="M51.7456 9.64961C52.2292 9.64961 52.6839 9.73981 53.1103 9.91955C53.1848 9.95117 53.257 9.98546 53.3283 10.0211C52.4469 9.56107 51.4447 9.30078 50.3815 9.30078C48.4557 9.30078 46.7291 10.1542 45.5592 11.5033C45.4234 12.0225 45.3555 12.5631 45.3555 13.1246C45.3555 14.011 45.5242 14.8421 45.8624 15.6186C46.1753 16.3386 46.5927 16.9737 47.1133 17.5239C46.7248 16.779 46.5048 15.9322 46.5048 15.0338C46.5048 12.1134 48.8261 9.73549 51.7243 9.64395V9.64961C51.7316 9.64961 51.7386 9.64961 51.7456 9.64961Z" fill="white"/>
<path d="M55.2626 18.4788L55.226 13.1415C55.226 13.1358 55.226 13.1305 55.226 13.1248C55.226 13.6075 55.1357 14.0595 54.9557 14.4805C54.7756 14.9019 54.5293 15.2704 54.2171 15.5863C53.9049 15.9021 53.5357 16.1521 53.1093 16.3365C52.683 16.5209 52.228 16.6131 51.7447 16.6131C51.2614 16.6131 50.8083 16.5209 50.3863 16.3365C49.9642 16.1521 49.5974 15.9021 49.2852 15.5863C48.973 15.2704 48.727 14.9019 48.5466 14.4805C48.3665 14.0591 48.2763 13.6075 48.2763 13.1248C48.2763 12.6422 48.3665 12.1902 48.5466 11.7691C48.7267 11.3477 48.9753 10.9793 49.2919 10.6634C49.6084 10.3475 49.9775 10.0995 50.3996 9.9198C50.815 9.74272 51.2564 9.65285 51.7234 9.65019V9.64453C48.8252 9.73607 46.5039 12.114 46.5039 15.0344C46.5039 15.9328 46.7239 16.7795 47.1124 17.5245C46.9549 17.3584 46.8075 17.1843 46.669 17.0026C46.8434 17.2316 47.0325 17.4486 47.2368 17.6529C47.816 18.2321 48.494 18.6908 49.2702 19.0283C50.0468 19.3661 50.8739 19.5352 51.7513 19.5352C52.4094 19.5352 53.0345 19.441 53.6269 19.2523C54.2158 19.0649 54.7633 18.8056 55.2699 18.4751C55.2676 18.4764 55.2649 18.4775 55.2626 18.4788Z" fill="white"/>
<path d="M44.1842 2.39567C44.0481 2.26419 43.89 2.16101 43.7103 2.08645C43.5302 2.01189 43.3485 1.97461 43.1641 1.97461C42.8042 1.97461 42.4751 2.11075 42.1768 2.38269L40.0459 4.29625C40.0129 4.32787 39.9793 4.35916 39.9437 4.38912C39.9234 4.40643 39.9038 4.4244 39.8835 4.44204L39.6179 4.68036C37.8534 6.33097 36.75 8.67958 36.75 11.2861C36.75 11.6093 36.7673 11.9289 36.8003 12.2434C36.8389 11.5275 37.1418 10.8817 37.6131 10.4021L37.6091 10.3984L37.7476 10.2746C37.7672 10.257 37.7865 10.239 37.8065 10.222L39.2457 8.93787L44.2032 4.5146C44.3523 4.36548 44.4642 4.20105 44.5387 4.02098C44.6133 3.84124 44.6506 3.65484 44.6506 3.46146C44.6506 3.25076 44.6066 3.05338 44.5188 2.86932C44.4309 2.68492 44.3191 2.52714 44.1832 2.39533L44.1842 2.39567Z" fill="white"/>
<path d="M35.4839 8.39288C34.8937 8.86886 34.5156 9.59747 34.5156 10.4146C34.5156 11.2318 34.9147 12.0013 35.5335 12.4756L37.6408 14.4255L37.0889 13.9149C36.0447 12.7839 35.4067 11.2724 35.4067 9.61178C35.4067 9.17974 35.4499 8.75769 35.5325 8.34961" fill="white"/>
<path d="M39.9431 4.38974C39.9787 4.35945 40.0123 4.32849 40.0452 4.29688L39.8828 4.44266C39.9031 4.42502 39.9228 4.40705 39.9431 4.38974Z" fill="white"/>
<path d="M36.7966 12.4504C36.7966 12.4335 36.7959 12.4165 36.7959 12.3992C36.7959 12.3466 36.7976 12.294 36.8006 12.2421C36.7676 11.9276 36.7504 11.609 36.7504 11.2855C36.7504 8.6789 37.8537 6.32997 39.6182 4.67969L35.5322 8.34938C35.45 8.75746 35.4062 9.17951 35.4062 9.61155C35.4062 11.2722 36.0444 12.7836 37.0886 13.9147L37.6404 14.4253C37.1304 13.9193 36.8103 13.2223 36.7966 12.4504Z" fill="white"/>
<path d="M44.9084 17.3481C44.8425 17.1726 44.7349 17.0102 44.5858 16.8611L37.6099 10.3984L37.6139 10.4021C37.5833 10.4331 37.5537 10.465 37.5244 10.4976C37.4961 10.5292 37.4685 10.5619 37.4412 10.5948C37.4405 10.5955 37.4398 10.5962 37.4395 10.5968C37.4282 10.6108 37.4172 10.6254 37.4059 10.6394C37.3902 10.6594 37.3743 10.6794 37.3593 10.7C37.3476 10.7156 37.3363 10.732 37.325 10.7479C37.311 10.7676 37.297 10.7869 37.2837 10.8068C37.2721 10.8242 37.2611 10.8415 37.2498 10.8591C37.2415 10.8718 37.2335 10.8847 37.2255 10.8974C37.2215 10.904 37.2172 10.9104 37.2132 10.917C37.2018 10.9353 37.1912 10.954 37.1802 10.9726C37.1802 10.9729 37.1799 10.9736 37.1795 10.9739C37.1473 11.0299 37.1166 11.0868 37.088 11.145C37.088 11.1454 37.0877 11.1457 37.0873 11.1464C37.077 11.167 37.067 11.188 37.0574 11.2093C37.0551 11.2139 37.0531 11.2189 37.0511 11.2236C37.0447 11.2376 37.0384 11.2512 37.0324 11.2652C36.9978 11.3447 36.9669 11.4263 36.9396 11.5095C36.9316 11.5341 36.9232 11.5588 36.9159 11.5837C36.9159 11.5847 36.9156 11.5854 36.9153 11.5864C36.8983 11.643 36.8836 11.7006 36.8703 11.7588C36.8637 11.7874 36.857 11.8171 36.8514 11.846C36.8494 11.8567 36.8477 11.8676 36.8457 11.8783C36.8237 11.9978 36.8084 12.1196 36.8018 12.2438C36.8011 12.2555 36.8008 12.2667 36.8001 12.2784C36.7994 12.2977 36.7984 12.3167 36.7981 12.336C36.7974 12.3573 36.7971 12.3786 36.7971 12.3999C36.7971 12.4169 36.7974 12.4342 36.7978 12.4511C36.8115 13.223 37.1316 13.92 37.6415 14.4259L36.6836 13.5396L42.5068 18.9274C42.647 19.0769 42.8051 19.1864 42.9808 19.2566C43.1562 19.3269 43.3363 19.3618 43.5204 19.3618C43.7311 19.3618 43.9261 19.3202 44.1062 19.2367C44.2859 19.1534 44.4417 19.0436 44.5735 18.9075C44.705 18.7717 44.8105 18.6136 44.8894 18.4335C44.9683 18.2537 45.0079 18.0673 45.0079 17.874C45.0079 17.6985 44.9743 17.5238 44.9084 17.3481Z" fill="white"/>
<path d="M37.2113 10.9148C37.2152 10.9082 37.2195 10.9019 37.2235 10.8953C37.2314 10.8828 37.2393 10.8699 37.2472 10.8574C37.235 10.8762 37.2232 10.8957 37.2113 10.9148Z" fill="white"/>
<path d="M68.5645 13.8627C68.5645 12.9297 68.0739 12.1122 67.3366 11.6519C66.9911 11.5464 66.6233 11.4931 66.2335 11.4931H63.7328C63.5045 11.4931 63.2941 11.4116 63.1011 11.2482C62.908 11.0847 62.8115 10.8527 62.8115 10.5522C62.8115 10.2959 62.9014 10.0749 63.0814 9.88946C63.2346 9.73136 63.415 9.64082 63.6223 9.61719C62.2906 9.73369 61.2461 10.8507 61.2461 12.2128C61.2461 12.8848 61.5007 13.4966 61.9185 13.9586C62.0037 14.0058 62.0902 14.0511 62.1801 14.0927C62.6451 14.3081 63.1493 14.4152 63.6939 14.4152H65.9579C66.0981 14.4152 66.2409 14.4329 66.3857 14.4678C66.5305 14.5028 66.6623 14.5577 66.7804 14.6323C66.8989 14.7072 66.9931 14.808 67.0633 14.9352C67.1336 15.0623 67.1685 15.2181 67.1685 15.4025C67.1685 15.5869 67.1312 15.76 67.0567 15.8961C66.9818 16.0322 66.8853 16.1418 66.7671 16.225C66.6486 16.3085 66.5168 16.3698 66.3723 16.4094C66.2276 16.449 66.0894 16.4686 65.9579 16.4686H65.951C65.9536 16.4686 65.9553 16.4686 65.9579 16.4686C67.3972 16.4686 68.5645 15.3019 68.5645 13.8627Z" fill="white"/>
<path d="M63.7333 9.61175H63.9942C63.9473 9.60909 63.9 9.60742 63.8524 9.60742C63.7995 9.60742 63.7472 9.60942 63.6953 9.61241C63.708 9.61208 63.7203 9.61175 63.7333 9.61175Z" fill="white"/>
<path d="M60.9771 13.2173C61.2497 13.5146 61.5642 13.7612 61.9197 13.9586C61.502 13.4966 61.2473 12.8845 61.2473 12.2128C61.2473 10.8511 62.2922 9.73372 63.6236 9.61722C63.6598 9.61322 63.6965 9.61089 63.7344 9.61089C63.7214 9.61089 63.7088 9.61123 63.6961 9.61189C63.748 9.6089 63.8006 9.6069 63.8532 9.6069C63.9008 9.6069 63.9481 9.60856 63.995 9.61123H68.0778C68.2705 9.61123 68.4506 9.57395 68.6173 9.49939C68.7838 9.42483 68.9309 9.32165 69.0584 9.19017C69.1855 9.05836 69.2864 8.90059 69.3609 8.71619C69.4355 8.53179 69.4728 8.33008 69.4728 8.11073C69.4728 7.65472 69.328 7.30357 69.0384 7.05792C68.7488 6.81228 68.4066 6.68945 68.0119 6.68945H63.6948C63.1682 6.68945 62.6746 6.78831 62.2139 6.98569C61.7533 7.18307 61.3495 7.45302 61.003 7.79519C60.6562 8.13736 60.3842 8.53678 60.1869 8.99312C59.9895 9.44946 59.8906 9.9321 59.8906 10.441C59.8906 10.95 59.9872 11.4699 60.1802 11.9482C60.3729 12.4265 60.6385 12.8495 60.9764 13.2183L60.9771 13.2173Z" fill="white"/>
<path d="M69.8001 13.9643C69.607 13.4827 69.3394 13.06 68.9973 12.6965C68.6551 12.333 68.249 12.0418 67.7797 11.8224C67.6362 11.7555 67.4884 11.6989 67.3363 11.6523C67.7694 11.9226 68.1172 12.3164 68.3306 12.7844C68.3329 12.789 68.3352 12.794 68.3372 12.7987C68.3375 12.7997 68.3379 12.8004 68.3382 12.8013C68.6032 13.3872 68.7509 14.0376 68.7509 14.7226C68.7509 17.3012 66.6606 19.3915 64.082 19.3915H66.2725C66.8254 19.3828 67.3363 19.2733 67.806 19.063C68.2753 18.8529 68.679 18.5703 69.0169 18.2155C69.3547 17.8607 69.6177 17.4466 69.8068 16.9736C69.9951 16.5007 70.0897 16.0011 70.0897 15.4755C70.0897 14.9499 69.9931 14.4463 69.8001 13.9643Z" fill="white"/>
<path d="M68.3334 12.7852C68.4835 13.1137 68.5668 13.4792 68.5668 13.8639C68.5668 15.3032 67.3998 16.4702 65.9605 16.4702C65.9579 16.4702 65.9552 16.4702 65.9525 16.4702H61.0104C60.6156 16.4702 60.2931 16.5973 60.0431 16.8519C59.7928 17.1066 59.668 17.4574 59.668 17.9051C59.668 18.3528 59.7931 18.7126 60.0431 18.9842C60.2931 19.2561 60.6156 19.3923 61.0104 19.3923H64.0849C66.6635 19.3923 68.7538 17.302 68.7538 14.7234C68.7538 14.032 68.6034 13.3756 68.3334 12.7852Z" fill="white"/>
<path d="M69.7988 13.9634C69.7292 13.79 69.65 13.6249 69.5612 13.4668C69.6184 13.5796 69.6713 13.6961 69.7196 13.8163C69.9126 14.2983 70.0092 14.8019 70.0092 15.3274C70.0092 15.853 69.9146 16.3526 69.7262 16.8256C69.5375 17.2986 69.2742 17.7127 68.9364 18.0675C68.5985 18.4223 68.1948 18.7049 67.7255 18.9149C67.2558 19.1253 66.7449 19.2348 66.192 19.2434H60.927C60.5322 19.2434 60.2097 19.1073 59.9597 18.8354C59.9028 18.7735 59.8529 18.7069 59.8086 18.636C59.8675 18.7641 59.9441 18.8796 60.0389 18.9828C60.2889 19.2548 60.6114 19.3909 61.0062 19.3909H66.2712C66.8241 19.3822 67.335 19.2727 67.8047 19.0624C68.274 18.8523 68.6778 18.5697 69.0156 18.2149C69.3534 17.8601 69.6164 17.446 69.8055 16.9731C69.9939 16.5001 70.0884 16.0005 70.0884 15.4749C70.0884 14.9493 69.9919 14.4454 69.7988 13.9634Z" fill="white"/>
<path d="M69.2672 7.31869C69.3511 7.50309 69.3934 7.71778 69.3934 7.96309C69.3934 8.18244 69.3558 8.38448 69.2816 8.56855C69.207 8.75295 69.1061 8.91072 68.979 9.04253C68.8519 9.17401 68.7044 9.27719 68.538 9.35175C68.3712 9.42664 68.1911 9.46359 67.9984 9.46359H63.9157C63.8687 9.46093 63.8215 9.45926 63.7739 9.45926C63.7209 9.45926 63.6687 9.46126 63.6168 9.46426C63.6294 9.46392 63.6421 9.46326 63.655 9.46326C63.6171 9.46326 63.5805 9.46559 63.5442 9.46958C62.2125 9.58608 61.168 10.7031 61.168 12.0652C61.168 12.1074 61.169 12.1494 61.171 12.191C61.1713 12.1993 61.1723 12.2073 61.1726 12.2156C61.1746 12.2489 61.1766 12.2825 61.1799 12.3155C61.1806 12.3218 61.1816 12.3281 61.1823 12.3344C61.1859 12.3694 61.1899 12.404 61.1946 12.4386C61.1953 12.4423 61.1959 12.4456 61.1963 12.4489C61.2019 12.4862 61.2079 12.5232 61.2149 12.5598C61.2149 12.5611 61.2156 12.5624 61.2156 12.5634C61.2465 12.7222 61.2915 12.876 61.3497 13.0228C61.3973 13.1426 61.4536 13.2578 61.5175 13.3679C61.4855 13.3034 61.4555 13.2375 61.4289 13.1699C61.3707 13.0228 61.3254 12.8693 61.2948 12.7106C61.2948 12.7092 61.2941 12.7079 61.2941 12.7069C61.2871 12.6703 61.2811 12.6333 61.2755 12.5961C61.2748 12.5924 61.2741 12.5891 61.2738 12.5857C61.2688 12.5511 61.2648 12.5165 61.2615 12.4816C61.2608 12.4752 61.2598 12.4689 61.2592 12.4626C61.2562 12.4296 61.2538 12.396 61.2518 12.3627C61.2515 12.3544 61.2505 12.3464 61.2502 12.3381C61.2482 12.2965 61.2472 12.2546 61.2472 12.2123C61.2472 10.8506 62.292 9.7332 63.6234 9.6167C63.6597 9.61271 63.6963 9.61038 63.7343 9.61038C63.7213 9.61038 63.7086 9.61071 63.696 9.61138C63.7479 9.60838 63.8005 9.60638 63.8531 9.60638C63.9007 9.60638 63.9479 9.60805 63.9949 9.61071H68.0776C68.2704 9.61071 68.4504 9.57343 68.6172 9.49887C68.7836 9.42431 68.9307 9.32113 69.0582 9.18965C69.1854 9.05784 69.2862 8.90007 69.3608 8.71567C69.4353 8.53127 69.4726 8.32956 69.4726 8.11021C69.4726 7.79667 69.404 7.53305 69.2672 7.31869Z" fill="white"/>
<path d="M67.8319 12.1125C68.0037 12.3076 68.1475 12.5286 68.2563 12.7689C68.3332 12.939 68.3925 13.1191 68.4317 13.3062C68.4793 13.5122 68.5046 13.7265 68.5046 13.9472C68.5046 14.3007 68.4398 14.6389 68.3223 14.9504C68.4721 14.6203 68.5556 14.2531 68.5556 13.8663C68.5556 13.4796 68.4727 13.1164 68.3246 12.7879C68.1139 12.3212 67.7707 11.9281 67.3438 11.6582C67.5241 11.7897 67.6874 11.9424 67.8319 12.1125Z" fill="white"/>
<path d="M67.3359 11.6523C67.3385 11.6542 67.341 11.656 67.3436 11.6578L67.3359 11.6523Z" fill="white"/>
<path d="M66.9817 14.7891C66.9115 14.6619 66.817 14.5611 66.6988 14.4862C66.5803 14.4116 66.4485 14.3567 66.304 14.3218C66.1592 14.2868 66.0165 14.2692 65.8763 14.2692H63.6123C63.0681 14.2692 62.5638 14.162 62.0985 13.9466C62.0086 13.905 61.9217 13.8598 61.8368 13.8125C61.8355 13.8112 61.7839 13.7822 61.7593 13.7682C61.7589 13.7676 61.7583 13.7672 61.7579 13.7666C61.4347 13.5772 61.1462 13.3462 60.8939 13.0709C60.6838 12.8419 60.5018 12.5916 60.3477 12.3203C60.5174 12.6488 60.7254 12.9484 60.9731 13.2183C61.2457 13.5156 61.5602 13.7622 61.9157 13.9596C62.0009 14.0069 62.0875 14.0521 62.1773 14.0937C62.6423 14.3091 63.1466 14.4163 63.6912 14.4163H65.9552C66.0953 14.4163 66.2381 14.4339 66.3829 14.4689C66.5277 14.5038 66.6595 14.5587 66.7777 14.6333C66.8739 14.6942 66.9538 14.7724 67.0183 14.8676C67.0074 14.8403 66.9953 14.8141 66.9817 14.7891Z" fill="white"/>
<path d="M57.6468 10.6253C57.4161 10.0851 57.1265 9.59251 56.7783 9.14648C57.0862 9.56055 57.3455 10.0139 57.5559 10.5062C57.8894 11.2874 58.0562 12.1208 58.0562 13.0072V17.8905C58.0562 18.1012 58.0166 18.2966 57.9377 18.4763C57.8588 18.6561 57.7533 18.8142 57.6218 18.95C57.4903 19.0861 57.3342 19.1933 57.1545 19.2725C56.9744 19.3514 56.7793 19.391 56.569 19.391C56.2178 19.391 55.9216 19.2945 55.6806 19.1014C55.6047 19.0408 55.5371 18.9736 55.4766 18.9017C55.5571 19.0212 55.655 19.1274 55.7711 19.2202C56.0125 19.413 56.3087 19.5098 56.6595 19.5098C56.8702 19.5098 57.0653 19.4705 57.245 19.3913C57.4247 19.3124 57.5809 19.2049 57.7123 19.0688C57.8438 18.933 57.9493 18.7749 58.0282 18.5951C58.1071 18.4154 58.1467 18.22 58.1467 18.0093V13.1261C58.1467 12.2397 57.9803 11.4065 57.6468 10.6253Z" fill="white"/>
<path d="M47.1103 17.5253L47.11 17.5243C47.1074 17.5214 47.1045 17.5185 47.1016 17.5156C47.1045 17.5189 47.1074 17.5221 47.1103 17.5253Z" fill="white"/>
<path opacity="0.57" d="M55.2618 18.2676C55.2618 18.2636 55.2628 18.3115 55.2624 18.2955C55.2631 18.2962 55.1722 18.3601 55.1722 18.3601C54.6676 18.6886 54.1228 18.9466 53.5366 19.133C52.9441 19.3217 52.319 19.4159 51.661 19.4159C50.7836 19.4159 49.9565 19.2471 49.1799 18.909C48.4034 18.5714 47.7257 18.1128 47.1465 17.5336C47.1259 17.513 47.1062 17.4917 47.0859 17.4707C47.0949 17.4883 47.1032 17.506 47.1122 17.5233C47.1535 17.5669 47.1948 17.6102 47.2371 17.6524C47.8162 18.2316 48.4942 18.6903 49.2704 19.0278C50.047 19.3656 50.8741 19.5347 51.7515 19.5347C52.4096 19.5347 53.0347 19.4405 53.6271 19.2518C54.193 19.0717 54.7875 18.7825 55.2821 18.4669C55.2718 18.4183 55.2618 18.3498 55.2618 18.2676Z" fill="white"/>
<path d="M44.908 17.3481C44.8421 17.1726 44.7346 17.0102 44.5855 16.8611L37.6096 10.3984L37.6135 10.4021C37.6096 10.4064 37.6056 10.4108 37.6016 10.4151L44.4497 16.7592C44.5988 16.9087 44.7063 17.0708 44.7722 17.2462C44.8381 17.4219 44.871 17.5974 44.871 17.7728C44.871 17.9658 44.8314 18.1526 44.7526 18.3323C44.6737 18.5124 44.5682 18.6701 44.4367 18.8063C44.3052 18.9424 44.1491 19.0519 43.9694 19.1355C43.7893 19.219 43.5942 19.2606 43.3835 19.2606C43.1991 19.2606 43.0194 19.2257 42.844 19.1554C42.7668 19.1245 42.6929 19.0855 42.6223 19.0393C42.7321 19.1331 42.851 19.206 42.9798 19.2573C43.1552 19.3275 43.3353 19.3625 43.5193 19.3625C43.73 19.3625 43.9251 19.3209 44.1052 19.2373C44.2849 19.1541 44.4407 19.0443 44.5725 18.9081C44.704 18.7723 44.8095 18.6142 44.8884 18.4341C44.9672 18.2544 45.0069 18.068 45.0069 17.8746C45.0069 17.6992 44.9739 17.5238 44.908 17.3481Z" fill="white"/>
<path d="M44.6509 3.46115C44.6509 3.25046 44.607 3.05308 44.5191 2.86901C44.4312 2.68461 44.3194 2.52684 44.1836 2.39503C44.118 2.33145 44.0471 2.27487 43.9712 2.22461C43.9972 2.24658 44.0228 2.26921 44.0478 2.29318C44.1836 2.42465 44.2958 2.58276 44.3833 2.76716C44.4709 2.95156 44.5151 3.14894 44.5151 3.3593C44.5151 3.51874 44.4892 3.67385 44.4382 3.82396C44.4276 3.85558 44.4159 3.8872 44.4033 3.91849C44.3287 4.09856 44.2169 4.26299 44.0678 4.41211L39.1103 8.83538L37.671 10.1195C37.6511 10.1365 37.6318 10.1545 37.6121 10.1721L37.4736 10.2959L37.4776 10.2996C37.0063 10.7796 36.7038 11.425 36.6648 12.1409C36.6621 12.1928 36.6602 12.2444 36.6602 12.2974C36.6602 12.3143 36.6605 12.3317 36.6608 12.3486C36.6731 13.0403 36.9321 13.6714 37.3525 14.159L37.6404 14.4253C37.1305 13.9194 36.8109 13.2224 36.7973 12.4505C36.7973 12.4332 36.796 12.4162 36.796 12.3989C36.796 12.3463 36.7976 12.2937 36.8006 12.2418C36.8392 11.5258 37.1421 10.8808 37.6134 10.4011L37.6094 10.3975L37.7479 10.2736C37.7676 10.256 37.7869 10.238 37.8068 10.221L39.2461 8.9369L44.2036 4.51363C44.3527 4.36451 44.4645 4.20009 44.5391 4.02001C44.5521 3.98872 44.5634 3.9571 44.574 3.92548C44.625 3.77503 44.6509 3.62059 44.6509 3.46115Z" fill="white"/>
<path d="M35.2137 2.7402C35.282 2.90096 35.3186 3.07305 35.3246 3.25578V8.52949C35.3685 8.48788 35.4138 8.44794 35.4607 8.40966V3.35797C35.455 3.17523 35.4181 3.00348 35.3499 2.84238C35.2753 2.66697 35.1721 2.51552 35.0406 2.38837C34.9781 2.32779 34.9095 2.27354 34.8359 2.22461C34.8596 2.24458 34.8825 2.26488 34.9048 2.28619C35.0366 2.41334 35.1391 2.56478 35.2137 2.7402Z" fill="white"/>
<path d="M35.3258 12.2988V17.8748C35.3202 18.0575 35.2832 18.2296 35.215 18.39C35.1404 18.5658 35.0372 18.7169 34.9058 18.844C34.7743 18.9712 34.6182 19.0724 34.4384 19.1466C34.2584 19.2211 34.0676 19.2584 33.8659 19.2584C33.6642 19.2584 33.4755 19.2211 33.3001 19.1466C33.2112 19.109 33.128 19.0644 33.0508 19.0131C33.1646 19.109 33.2928 19.1875 33.4362 19.2484C33.6116 19.323 33.8004 19.3603 34.0021 19.3603C34.2038 19.3603 34.3945 19.323 34.5746 19.2484C34.7543 19.1739 34.9101 19.073 35.0419 18.9459C35.1737 18.8187 35.2766 18.6673 35.3511 18.4919C35.4194 18.3311 35.456 18.1593 35.462 17.9766V12.419C35.4154 12.3804 35.3698 12.3404 35.3258 12.2988Z" fill="white"/>
<path opacity="0.4" d="M69.7988 13.9634C69.7292 13.79 69.65 13.6249 69.5612 13.4668C69.6184 13.5796 69.6713 13.6961 69.7196 13.8163C69.9126 14.2983 70.0092 14.8019 70.0092 15.3274C70.0092 15.853 69.9146 16.3526 69.7262 16.8256C69.5375 17.2986 69.2742 17.7127 68.9364 18.0675C68.5985 18.4223 68.1948 18.7049 67.7255 18.9149C67.2558 19.1253 66.7449 19.2348 66.192 19.2434H60.927C60.5322 19.2434 60.2097 19.1073 59.9597 18.8354C59.9028 18.7735 59.8529 18.7069 59.8086 18.636C59.8675 18.7641 59.9441 18.8796 60.0389 18.9828C60.2889 19.2548 60.6114 19.3909 61.0062 19.3909H66.2712C66.8241 19.3822 67.335 19.2727 67.8047 19.0624C68.274 18.8523 68.6778 18.5697 69.0156 18.2149C69.3534 17.8601 69.6164 17.446 69.8055 16.9731C69.9939 16.5001 70.0884 16.0005 70.0884 15.4749C70.0884 14.9493 69.9919 14.4454 69.7988 13.9634Z" fill="white"/>
<g opacity="0.4">
<path d="M67.8319 12.1125C68.0037 12.3076 68.1475 12.5286 68.2563 12.7689C68.3332 12.939 68.3925 13.1191 68.4317 13.3062C68.4793 13.5122 68.5046 13.7265 68.5046 13.9472C68.5046 14.3007 68.4398 14.6389 68.3223 14.9504C68.4721 14.6203 68.5556 14.2531 68.5556 13.8663C68.5556 13.4796 68.4727 13.1164 68.3246 12.7879C68.1139 12.3212 67.7707 11.9281 67.3438 11.6582C67.5241 11.7897 67.6874 11.9424 67.8319 12.1125Z" fill="white"/>
<path d="M67.3359 11.6523C67.3385 11.6542 67.341 11.656 67.3436 11.6578L67.3359 11.6523Z" fill="white"/>
</g>
<path opacity="0.4" d="M66.6341 14.4688C66.5638 14.3416 66.4693 14.2408 66.3511 14.1659C66.2327 14.0913 66.1008 14.0364 65.9564 14.0014C65.8116 13.9665 65.6688 13.9488 65.5287 13.9488H63.2646C62.7204 13.9488 62.2161 13.8417 61.7508 13.6263C61.6609 13.5847 61.5741 13.5394 61.4892 13.4922C61.4878 13.4908 61.4363 13.4619 61.4116 13.4479C61.4113 13.4472 61.4106 13.4469 61.4103 13.4462C61.0871 13.2568 60.7985 13.0258 60.5462 12.7506C60.3362 12.5216 60.1541 12.2713 60 12C60.1698 12.3285 60.3778 12.6281 60.6254 12.898C60.898 13.1953 61.2126 13.4419 61.5681 13.6393C61.6533 13.6866 61.7398 13.7318 61.8297 13.7734C62.2947 13.9888 62.7989 14.096 63.3435 14.096H65.6076C65.7477 14.096 65.8905 14.1136 66.0353 14.1486C66.1801 14.1835 66.3119 14.2384 66.43 14.313C66.5262 14.3739 66.6061 14.4521 66.6707 14.5473C66.6597 14.52 66.6478 14.4938 66.6341 14.4688Z" fill="white"/>
<path opacity="0.4" d="M57.6468 10.6253C57.4161 10.0851 57.1265 9.59251 56.7783 9.14648C57.0862 9.56055 57.3455 10.0139 57.5559 10.5062C57.8894 11.2874 58.0562 12.1208 58.0562 13.0072V17.8905C58.0562 18.1012 58.0166 18.2966 57.9377 18.4763C57.8588 18.6561 57.7533 18.8142 57.6218 18.95C57.4903 19.0861 57.3342 19.1933 57.1545 19.2725C56.9744 19.3514 56.7793 19.391 56.569 19.391C56.2178 19.391 55.9216 19.2945 55.6806 19.1014C55.6047 19.0408 55.5371 18.9736 55.4766 18.9017C55.5571 19.0212 55.655 19.1274 55.7711 19.2202C56.0125 19.413 56.3087 19.5098 56.6595 19.5098C56.8702 19.5098 57.0653 19.4705 57.245 19.3913C57.4247 19.3124 57.5809 19.2049 57.7123 19.0688C57.8438 18.933 57.9493 18.7749 58.0282 18.5951C58.1071 18.4154 58.1467 18.22 58.1467 18.0093V13.1261C58.1467 12.2397 57.9803 11.4065 57.6468 10.6253Z" fill="white"/>
<path opacity="0.4" d="M47.1103 17.5253L47.11 17.5243C47.1074 17.5214 47.1045 17.5185 47.1016 17.5156C47.1045 17.5189 47.1074 17.5221 47.1103 17.5253Z" fill="white"/>
<path opacity="0.4" d="M55.2618 18.2676C55.2618 18.2636 55.2628 18.3115 55.2624 18.2955C55.2631 18.2962 55.1722 18.3601 55.1722 18.3601C54.6676 18.6886 54.1228 18.9466 53.5366 19.133C52.9441 19.3217 52.319 19.4159 51.661 19.4159C50.7836 19.4159 49.9565 19.2471 49.1799 18.909C48.4034 18.5714 47.7257 18.1128 47.1465 17.5336C47.1259 17.513 47.1062 17.4917 47.0859 17.4707C47.0949 17.4883 47.1032 17.506 47.1122 17.5233C47.1535 17.5669 47.1948 17.6102 47.2371 17.6524C47.8162 18.2316 48.4942 18.6903 49.2704 19.0278C50.047 19.3656 50.8741 19.5347 51.7515 19.5347C52.4096 19.5347 53.0347 19.4405 53.6271 19.2518C54.193 19.0717 54.7875 18.7825 55.2821 18.4669C55.2718 18.4183 55.2618 18.3498 55.2618 18.2676Z" fill="white"/>
<path opacity="0.4" d="M44.908 17.3481C44.8421 17.1726 44.7346 17.0102 44.5855 16.8611L37.6096 10.3984L37.6135 10.4021C37.6096 10.4064 37.6056 10.4108 37.6016 10.4151L44.4497 16.7592C44.5988 16.9087 44.7063 17.0708 44.7722 17.2462C44.8381 17.4219 44.871 17.5974 44.871 17.7728C44.871 17.9658 44.8314 18.1526 44.7526 18.3323C44.6737 18.5124 44.5682 18.6701 44.4367 18.8063C44.3052 18.9424 44.1491 19.0519 43.9694 19.1355C43.7893 19.219 43.5942 19.2606 43.3835 19.2606C43.1991 19.2606 43.0194 19.2257 42.844 19.1554C42.7668 19.1245 42.6929 19.0855 42.6223 19.0393C42.7321 19.1331 42.851 19.206 42.9798 19.2573C43.1552 19.3275 43.3353 19.3625 43.5193 19.3625C43.73 19.3625 43.9251 19.3209 44.1052 19.2373C44.2849 19.1541 44.4407 19.0443 44.5725 18.9081C44.704 18.7723 44.8095 18.6142 44.8884 18.4341C44.9672 18.2544 45.0069 18.068 45.0069 17.8746C45.0069 17.6992 44.9739 17.5238 44.908 17.3481Z" fill="white"/>
<g opacity="0.4">
<path d="M44.6509 3.46115C44.6509 3.25046 44.607 3.05308 44.5191 2.86901C44.4312 2.68461 44.3194 2.52684 44.1836 2.39503C44.118 2.33145 44.0471 2.27487 43.9712 2.22461C43.9972 2.24658 44.0228 2.26921 44.0478 2.29318C44.1836 2.42465 44.2958 2.58276 44.3833 2.76716C44.4709 2.95156 44.5151 3.14894 44.5151 3.3593C44.5151 3.51874 44.4892 3.67385 44.4382 3.82396C44.4276 3.85558 44.4159 3.8872 44.4033 3.91849C44.3287 4.09856 44.2169 4.26299 44.0678 4.41211L39.1103 8.83538L37.671 10.1195C37.6511 10.1365 37.6318 10.1545 37.6121 10.1721L37.4736 10.2959L37.4776 10.2996C37.0063 10.7796 36.7038 11.425 36.6648 12.1409C36.6621 12.1928 36.6602 12.2444 36.6602 12.2974C36.6602 12.3143 36.6605 12.3317 36.6608 12.3486C36.6731 13.0403 36.9321 13.6714 37.3525 14.159L37.6404 14.4253C37.1305 13.9194 36.8109 13.2224 36.7973 12.4505C36.7973 12.4332 36.796 12.4162 36.796 12.3989C36.796 12.3463 36.7976 12.2937 36.8006 12.2418C36.8392 11.5258 37.1421 10.8808 37.6134 10.4011L37.6094 10.3975L37.7479 10.2736C37.7676 10.256 37.7869 10.238 37.8068 10.221L39.2461 8.9369L44.2036 4.51363C44.3527 4.36451 44.4645 4.20009 44.5391 4.02001C44.5521 3.98872 44.5634 3.9571 44.574 3.92548C44.625 3.77503 44.6509 3.62059 44.6509 3.46115Z" fill="white"/>
</g>
<path opacity="0.4" d="M35.2137 2.7402C35.282 2.90096 35.3186 3.07305 35.3246 3.25578V8.52949C35.3685 8.48788 35.4138 8.44794 35.4607 8.40966V3.35797C35.455 3.17523 35.4181 3.00348 35.3499 2.84238C35.2753 2.66697 35.1721 2.51552 35.0406 2.38837C34.9781 2.32779 34.9095 2.27354 34.8359 2.22461C34.8596 2.24458 34.8825 2.26488 34.9048 2.28619C35.0366 2.41334 35.1391 2.56478 35.2137 2.7402Z" fill="white"/>
<path opacity="0.4" d="M35.3258 12.2988V17.8748C35.3202 18.0575 35.2832 18.2296 35.215 18.39C35.1404 18.5658 35.0372 18.7169 34.9058 18.844C34.7743 18.9712 34.6182 19.0724 34.4384 19.1466C34.2584 19.2211 34.0676 19.2584 33.8659 19.2584C33.6642 19.2584 33.4755 19.2211 33.3001 19.1466C33.2112 19.109 33.128 19.0644 33.0508 19.0131C33.1646 19.109 33.2928 19.1875 33.4362 19.2484C33.6116 19.323 33.8004 19.3603 34.0021 19.3603C34.2038 19.3603 34.3945 19.323 34.5746 19.2484C34.7543 19.1739 34.9101 19.073 35.0419 18.9459C35.1737 18.8187 35.2766 18.6673 35.3511 18.4919C35.4194 18.3311 35.456 18.1593 35.462 17.9766V12.419C35.4154 12.3804 35.3698 12.3404 35.3258 12.2988Z" fill="white"/>
</svg>
