<svg width="1504" height="1408" viewBox="0 0 1504 1408" fill="none" xmlns="http://www.w3.org/2000/svg">
<g filter="url(#filter0_f_62_31)">
<path d="M1052.42 410.478C1025.82 362.113 522.186 268.14 351.897 250C176.569 398.117 240.219 842.53 445.775 845.553C651.332 848.576 569.54 930.554 711.615 1030.31C853.691 1130.06 1079.38 1257.03 1215.41 1030.31C1351.44 803.593 1085.68 470.933 1052.42 410.478Z" fill="url(#paint0_linear_62_31)"/>
<path d="M1052.42 410.478C1025.82 362.113 522.186 268.14 351.897 250C176.569 398.117 240.219 842.53 445.775 845.553C651.332 848.576 569.54 930.554 711.615 1030.31C853.691 1130.06 1079.38 1257.03 1215.41 1030.31C1351.44 803.593 1085.68 470.933 1052.42 410.478Z" fill="url(#paint1_linear_62_31)"/>
</g>
<g filter="url(#filter1_f_62_31)">
<ellipse cx="767.955" cy="657.148" rx="129.381" ry="181.461" fill="black"/>
</g>
<defs>
<filter id="filter0_f_62_31" x="0" y="0" width="1503.89" height="1407.06" filterUnits="userSpaceOnUse" color-interpolation-filters="sRGB">
<feFlood flood-opacity="0" result="BackgroundImageFix"/>
<feBlend mode="normal" in="SourceGraphic" in2="BackgroundImageFix" result="shape"/>
<feGaussianBlur stdDeviation="125" result="effect1_foregroundBlur_62_31"/>
</filter>
<filter id="filter1_f_62_31" x="338.574" y="175.688" width="858.762" height="962.922" filterUnits="userSpaceOnUse" color-interpolation-filters="sRGB">
<feFlood flood-opacity="0" result="BackgroundImageFix"/>
<feBlend mode="normal" in="SourceGraphic" in2="BackgroundImageFix" result="shape"/>
<feGaussianBlur stdDeviation="150" result="effect1_foregroundBlur_62_31"/>
</filter>
<linearGradient id="paint0_linear_62_31" x1="730.225" y1="402.473" x2="569.538" y2="709.88" gradientUnits="userSpaceOnUse">
<stop stop-color="#00AE05"/>
<stop offset="1" stop-color="#00AE05" stop-opacity="0"/>
</linearGradient>
<linearGradient id="paint1_linear_62_31" x1="1084.31" y1="557.361" x2="421.223" y2="997.703" gradientUnits="userSpaceOnUse">
<stop stop-color="#47FA92" stop-opacity="0.6"/>
<stop offset="1" stop-opacity="0"/>
</linearGradient>
</defs>
</svg>
