<svg width="40" height="40" viewBox="0 0 40 40" fill="none" xmlns="http://www.w3.org/2000/svg">
<rect width="40" height="40" rx="4.97528" fill="url(#paint0_radial_132_867)"/>
<g clip-path="url(#clip0_132_867)">
<path d="M19.9998 6.93555C12.7857 6.93555 6.93652 12.7847 6.93652 19.9988C6.93652 27.213 12.7857 33.0621 19.9998 33.0621C27.214 33.0621 33.0631 27.213 33.0631 19.9988C33.0631 12.7847 27.214 6.93555 19.9998 6.93555ZM29.5528 14.7769C29.5995 15.1235 29.6251 15.4956 29.6251 15.8953C29.6251 16.9988 29.4188 18.2405 28.798 19.7947L25.4726 29.4072C28.7087 27.5213 30.8859 24.0131 30.8859 19.9988C30.8859 18.1065 30.4032 16.3269 29.5528 14.7769ZM20.1912 20.9514L16.9253 30.4427C17.9013 30.7297 18.9325 30.887 19.9998 30.887C21.267 30.887 22.4832 30.668 23.6143 30.2704C23.5846 30.2237 23.559 30.1748 23.5357 30.1195L20.1912 20.9514ZM27.3479 19.4503C27.3479 18.1044 26.8653 17.1731 26.4507 16.4481C25.8979 15.5509 25.3812 14.7918 25.3812 13.8946C25.3812 12.8931 26.1402 11.9619 27.2097 11.9619C27.2586 11.9619 27.3033 11.9682 27.35 11.9704C25.4131 10.195 22.8319 9.11276 19.9998 9.11276C16.1961 9.11276 12.8516 11.0646 10.904 14.02C11.1591 14.0285 11.3994 14.0328 11.6056 14.0328C12.7431 14.0328 14.5079 13.8946 14.5079 13.8946C15.0947 13.8605 15.1627 14.7216 14.578 14.7918C14.578 14.7918 13.9891 14.8598 13.3321 14.896L17.2953 26.6878L19.6788 19.5438L17.9821 14.896C17.3952 14.862 16.8403 14.7918 16.8403 14.7918C16.2535 14.7578 16.3215 13.8605 16.9083 13.8946C16.9083 13.8946 18.705 14.0328 19.7744 14.0328C20.9119 14.0328 22.6767 13.8946 22.6767 13.8946C23.2635 13.8605 23.3315 14.7216 22.7468 14.7918C22.7468 14.7918 22.1558 14.8598 21.5009 14.896L25.4343 26.5964L26.557 23.0372C27.0566 21.4829 27.3479 20.3816 27.3479 19.4503ZM9.11374 19.9988C9.11374 24.3086 11.6184 28.0316 15.2499 29.7963L10.0556 15.5679C9.4518 16.9222 9.11374 18.4191 9.11374 19.9988ZM19.9998 7.72011C21.6582 7.72011 23.2656 8.04542 24.7795 8.6854C25.5066 8.9937 26.2083 9.37428 26.8653 9.81653C27.5159 10.2567 28.1282 10.7606 28.6832 11.3155C29.2381 11.8704 29.7441 12.4828 30.1821 13.1334C30.6265 13.7904 31.0071 14.492 31.3133 15.2192C31.9532 16.733 32.2785 18.3404 32.2785 19.9988C32.2785 21.6573 31.9532 23.2647 31.3133 24.7785C31.005 25.5057 30.6244 26.2073 30.1821 26.8643C29.742 27.5149 29.2381 28.1272 28.6832 28.6822C28.1282 29.2371 27.5159 29.7431 26.8653 30.1811C26.2083 30.6255 25.5066 31.0061 24.7795 31.3123C23.2656 31.9523 21.6582 32.2776 19.9998 32.2776C18.3414 32.2776 16.734 31.9523 15.2201 31.3123C14.493 31.004 13.7913 30.6234 13.1344 30.1811C12.4837 29.741 11.8714 29.2371 11.3165 28.6822C10.7615 28.1272 10.2555 27.5149 9.81751 26.8643C9.37313 26.2073 8.99255 25.5057 8.68637 24.7785C8.04427 23.2647 7.72109 21.6573 7.72109 19.9988C7.72109 18.3404 8.04639 16.733 8.68637 15.2192C8.99467 14.492 9.37526 13.7904 9.81751 13.1334C10.2576 12.4828 10.7615 11.8704 11.3165 11.3155C11.8714 10.7606 12.4837 10.2545 13.1344 9.81653C13.7913 9.37216 14.493 8.99157 15.2201 8.6854C16.734 8.04329 18.3414 7.72011 19.9998 7.72011Z" fill="#58FF5D"/>
</g>
<defs>
<radialGradient id="paint0_radial_132_867" cx="0" cy="0" r="1" gradientUnits="userSpaceOnUse" gradientTransform="translate(1.99978 1.39164) rotate(45.2682) scale(52.0623)">
<stop stop-color="#00620B"/>
<stop offset="1" stop-color="#00A313"/>
</radialGradient>
<clipPath id="clip0_132_867">
<rect width="26.1266" height="26.1266" fill="white" transform="translate(6.93652 6.93555)"/>
</clipPath>
</defs>
</svg>
