<svg width="26" height="26" viewBox="0 0 26 26" fill="none" xmlns="http://www.w3.org/2000/svg">
<g clip-path="url(#clip0_3268_249)">
<path d="M25.6012 12.7988C25.6012 5.73318 19.8668 -0.0012207 12.8012 -0.0012207C5.73562 -0.0012207 0.0012207 5.73318 0.0012207 12.7988C0.0012207 19.8644 5.73562 25.5988 12.8012 25.5988C19.8668 25.5988 25.6012 19.8644 25.6012 12.7988ZM12.8012 1.29158C19.1628 1.29158 24.3084 6.43718 24.3084 12.7988C24.3084 19.1604 19.1628 24.306 12.8012 24.306C6.43962 24.306 1.29402 19.1604 1.29402 12.7988C1.29402 6.43718 6.43962 1.29158 12.8012 1.29158ZM10.254 18.9684L6.35002 8.45958C6.97722 8.42118 7.69402 8.35718 7.69402 8.35718C8.24442 8.29318 8.18042 7.06438 7.61722 7.08998C7.61722 7.08998 5.96602 7.21798 4.89082 7.21798C4.69882 7.21798 4.46842 7.21798 4.22522 7.20518C6.06842 4.42758 9.21722 2.59718 12.8012 2.59718C15.4764 2.59718 17.9084 3.60838 19.726 5.27238C18.958 5.16998 17.87 5.72038 17.87 7.08998C17.87 7.93478 18.3564 8.65158 18.8812 9.49638C19.278 10.1876 19.5212 11.058 19.5212 12.3252C19.5212 14.0404 17.8956 18.0596 17.8956 18.0596L14.4268 8.45958C15.0412 8.42118 15.3868 8.25478 15.3868 8.25478C15.9372 8.19078 15.8732 6.84678 15.3228 6.87238C15.3228 6.87238 13.6588 7.01318 12.5836 7.01318C11.5852 7.01318 9.88282 6.87238 9.88282 6.87238C9.33242 6.84678 9.26842 8.22918 9.81882 8.25478L10.894 8.35718L12.3276 12.2484L10.254 18.9684ZM17.9596 21.7204L21.3004 12.7988C21.3004 12.7988 22.158 10.6356 21.7996 7.92198C22.606 9.38118 23.0028 11.0196 23.0028 12.7988C23.0028 16.5876 21.006 19.9412 17.9596 21.7204ZM3.43162 8.66438L8.32122 22.0788C4.90362 20.4148 2.59962 16.8564 2.59962 12.7988C2.59962 11.314 2.85562 9.94438 3.43162 8.66438ZM12.9676 14.4628L15.8988 22.4628C14.9388 22.8084 13.8892 23.0004 12.8012 23.0004C11.8796 23.0004 10.9964 22.8596 10.1644 22.6164L12.9676 14.4628Z" fill="white"/>
</g>
<defs>
<clipPath id="clip0_3268_249">
<rect width="25.6" height="25.6" fill="white"/>
</clipPath>
</defs>
</svg>
